<svg width="1356" height="548" viewBox="0 0 1356 548" fill="none" xmlns="http://www.w3.org/2000/svg">
<path d="M42 484V484.5H42.5V484H42ZM42 64H41.5V484H42H42.5V64H42ZM42 484V483.5H0V484V484.5H42V484Z" fill="#E2E8F0"/>
<path d="M42 484H41.5V548H42H42.5V484H42Z" fill="#E2E8F0"/>
<path d="M42 64V64.5H42.5V64H42ZM42 0H41.5V64H42H42.5V0H42ZM42 64V63.5H0V64V64.5H42V64Z" fill="#E2E8F0"/>
<path d="M1314 484H1313.5V484.5H1314V484ZM1356 484V483.5H1314V484V484.5H1356V484ZM1314 484H1314.5V64H1314H1313.5V484H1314Z" fill="#E2E8F0"/>
<path d="M1314 548H1314.5V484H1314H1313.5V548H1314Z" fill="#E2E8F0"/>
<path d="M1314 64H1313.5V64.5H1314V64ZM1356 64V63.5H1314V64V64.5H1356V64ZM1314 64H1314.5V0H1314H1313.5V64H1314Z" fill="#E2E8F0"/>
<path d="M1314 484V483.5H42V484V484.5H1314V484Z" fill="#E2E8F0"/>
<g clip-path="url(#clip0_604_2432)">
<rect width="1272" height="420" transform="translate(42 64)" fill="white"/>
<g clip-path="url(#clip1_604_2432)">
<path d="M315.307 -44L678.001 318.692V320.191L313.809 -44H315.307Z" fill="#C4C4C4"/>
<path d="M345.59 -44L678 288.409V289.907L344.092 -44H345.59Z" fill="#C4C4C4"/>
<path d="M375.876 -44L678 258.125V259.623L374.377 -44H375.876Z" fill="#C4C4C4"/>
<path d="M406.159 -44L678 227.84V229.339L404.66 -44H406.159Z" fill="#C4C4C4"/>
<path d="M436.443 -44L677.999 197.556V199.055L434.943 -44H436.443Z" fill="#C4C4C4"/>
<path d="M466.727 -44L677.999 167.272V168.771L465.229 -44H466.727Z" fill="#C4C4C4"/>
<path d="M497.012 -44L678.001 136.987V138.487L495.514 -44H497.012Z" fill="#C4C4C4"/>
<path d="M527.296 -44L677.999 106.703V108.202L525.797 -44H527.296Z" fill="#C4C4C4"/>
<path d="M557.581 -44L678 76.4196V77.9183L556.082 -44H557.581Z" fill="#C4C4C4"/>
<path d="M285.022 -44L677.999 348.977V350.476L283.523 -44H285.022Z" fill="#C4C4C4"/>
<path d="M254.738 -44L677.999 379.261V380.76L253.238 -44H254.738Z" fill="#C4C4C4"/>
<path d="M224.455 -44L678 409.545V411.044L222.955 -44H224.455Z" fill="#C4C4C4"/>
<path d="M194.171 -44L678 439.829V441.329L192.672 -44H194.171Z" fill="#C4C4C4"/>
<path d="M163.885 -44L678 470.114V471.612L162.387 -44H163.885Z" fill="#C4C4C4"/>
<path d="M133.602 -44L678.001 500.398V501.896L132.104 -44H133.602Z" fill="#C4C4C4"/>
<path d="M103.317 -44L678 530.681V532.18L101.818 -44H103.317Z" fill="#C4C4C4"/>
<path d="M73.0338 -44L678 560.966V562.465L71.5352 -44H73.0338Z" fill="#C4C4C4"/>
<path d="M678 592H677.25L42 -43.2501V-44H42.7499L678 591.25V592Z" fill="#C4C4C4"/>
<path d="M646.966 592L42 -12.9662V-14.4648L648.465 592H646.966Z" fill="#C4C4C4"/>
<path d="M616.682 592L42 17.3175V15.8188L618.181 592H616.682Z" fill="#C4C4C4"/>
<path d="M586.398 592L42 47.6012V46.1025L587.896 592H586.398Z" fill="#C4C4C4"/>
<path d="M556.114 592L42 77.8864V76.3877L557.612 592H556.114Z" fill="#C4C4C4"/>
<path d="M525.829 592L42 108.17V106.671L527.329 592H525.829Z" fill="#C4C4C4"/>
<path d="M495.545 592L42 138.455V136.955L497.044 592H495.545Z" fill="#C4C4C4"/>
<path d="M465.261 592L42 168.739V167.24L466.76 592H465.261Z" fill="#C4C4C4"/>
<path d="M434.977 592L42 199.023V197.524L436.476 592H434.977Z" fill="#C4C4C4"/>
<path d="M404.692 592L42 229.306V227.808L406.192 592H404.692Z" fill="#C4C4C4"/>
<path d="M374.409 592L42 259.592V258.092L375.907 592H374.409Z" fill="#C4C4C4"/>
<path d="M344.125 592L42 289.875V288.376L345.623 592H344.125Z" fill="#C4C4C4"/>
<path d="M313.84 592L42 320.159V318.66L315.34 592H313.84Z" fill="#C4C4C4"/>
<path d="M283.556 592L42 350.444V348.945L285.055 592H283.556Z" fill="#C4C4C4"/>
<path d="M253.272 592L42 380.728V379.229L254.771 592H253.272Z" fill="#C4C4C4"/>
<path d="M222.988 592L42 411.012V409.513L224.487 592H222.988Z" fill="#C4C4C4"/>
<path d="M192.703 592L42 441.297V439.798L194.202 592H192.703Z" fill="#C4C4C4"/>
<path d="M162.42 592L42 471.58V470.082L163.918 592H162.42Z" fill="#C4C4C4"/>
<path d="M330.676 -44L678 303.322V304.821L329.178 -44H330.676Z" fill="#C4C4C4"/>
<path d="M360.961 -44L677.999 273.039V274.537L359.461 -44H360.961Z" fill="#C4C4C4"/>
<path d="M391.245 -44L678 242.755V244.253L389.746 -44H391.245Z" fill="#C4C4C4"/>
<path d="M421.53 -44L678.001 212.47V213.969L420.031 -44H421.53Z" fill="#C4C4C4"/>
<path d="M451.814 -44L678 182.186V183.685L450.314 -44H451.814Z" fill="#C4C4C4"/>
<path d="M482.098 -44L678.001 151.902V153.401L480.6 -44H482.098Z" fill="#C4C4C4"/>
<path d="M512.381 -44L678 121.617V123.116L510.883 -44H512.381Z" fill="#C4C4C4"/>
<path d="M542.667 -44L678 91.3335V92.8322L541.168 -44H542.667Z" fill="#C4C4C4"/>
<path d="M300.393 -44L678.001 333.607V335.106L298.895 -44H300.393Z" fill="#C4C4C4"/>
<path d="M270.109 -44L678 363.891V365.39L268.609 -44H270.109Z" fill="#C4C4C4"/>
<path d="M239.825 -44L678.001 394.175V395.674L238.326 -44H239.825Z" fill="#C4C4C4"/>
<path d="M209.54 -44L678 424.459V425.959L208.041 -44H209.54Z" fill="#C4C4C4"/>
<path d="M179.256 -44L677.999 454.743V456.242L177.756 -44H179.256Z" fill="#C4C4C4"/>
<path d="M148.972 -44L678 485.028V486.526L147.473 -44H148.972Z" fill="#C4C4C4"/>
<path d="M118.688 -44L678.001 515.313V516.811L117.189 -44H118.688Z" fill="#C4C4C4"/>
<path d="M88.403 -44L677.999 545.596V547.095L86.9043 -44H88.403Z" fill="#C4C4C4"/>
<path d="M58.1189 -44L677.999 575.88V577.379L56.6191 -44H58.1189Z" fill="#C4C4C4"/>
<path d="M662.336 592L42 -28.3363V-29.835L663.835 592H662.336Z" fill="#C4C4C4"/>
<path d="M632.052 592L42 1.94741V0.44873L633.551 592H632.052Z" fill="#C4C4C4"/>
<path d="M601.768 592L42 32.2316V30.7329L603.266 592H601.768Z" fill="#C4C4C4"/>
<path d="M571.484 592L42 62.5162V61.0176L572.982 592H571.484Z" fill="#C4C4C4"/>
<path d="M541.2 592L42 92.8V91.3013L542.699 592H541.2Z" fill="#C4C4C4"/>
<path d="M510.915 592L42 123.084V121.585L512.414 592H510.915Z" fill="#C4C4C4"/>
<path d="M480.631 592L42 153.369V151.87L482.13 592H480.631Z" fill="#C4C4C4"/>
<path d="M450.347 592L42 183.652V182.154L451.846 592H450.347Z" fill="#C4C4C4"/>
<path d="M420.062 592L42 213.937V212.438L421.562 592H420.062Z" fill="#C4C4C4"/>
<path d="M389.779 592L42 244.221V242.723L391.277 592H389.779Z" fill="#C4C4C4"/>
<path d="M359.495 592L42 274.506V273.007L360.993 592H359.495Z" fill="#C4C4C4"/>
<path d="M329.21 592L42 304.789V303.291L330.71 592H329.21Z" fill="#C4C4C4"/>
<path d="M298.926 592L42 335.074V333.575L300.425 592H298.926Z" fill="#C4C4C4"/>
<path d="M268.642 592L42 365.358V363.859L270.141 592H268.642Z" fill="#C4C4C4"/>
<path d="M238.357 592L42 395.642V394.143L239.857 592H238.357Z" fill="#C4C4C4"/>
<path d="M208.073 592L42 425.926V424.427L209.572 592H208.073Z" fill="#C4C4C4"/>
<path d="M177.79 592L42 456.211V454.712L179.288 592H177.79Z" fill="#C4C4C4"/>
</g>
<g clip-path="url(#clip2_604_2432)">
<path d="M951.307 -44L1314 318.692V320.191L949.809 -44H951.307Z" fill="#C4C4C4"/>
<path d="M981.59 -44L1314 288.409V289.907L980.092 -44H981.59Z" fill="#C4C4C4"/>
<path d="M1011.88 -44L1314 258.125V259.623L1010.38 -44H1011.88Z" fill="#C4C4C4"/>
<path d="M1042.16 -44L1314 227.84V229.339L1040.66 -44H1042.16Z" fill="#C4C4C4"/>
<path d="M1072.44 -44L1314 197.556V199.055L1070.94 -44H1072.44Z" fill="#C4C4C4"/>
<path d="M1102.73 -44L1314 167.272V168.771L1101.23 -44H1102.73Z" fill="#C4C4C4"/>
<path d="M1133.01 -44L1314 136.987V138.487L1131.51 -44H1133.01Z" fill="#C4C4C4"/>
<path d="M1163.3 -44L1314 106.703V108.202L1161.8 -44H1163.3Z" fill="#C4C4C4"/>
<path d="M1193.58 -44L1314 76.4196V77.9183L1192.08 -44H1193.58Z" fill="#C4C4C4"/>
<path d="M921.022 -44L1314 348.977V350.476L919.523 -44H921.022Z" fill="#C4C4C4"/>
<path d="M890.738 -44L1314 379.261V380.76L889.238 -44H890.738Z" fill="#C4C4C4"/>
<path d="M860.455 -44L1314 409.545V411.044L858.955 -44H860.455Z" fill="#C4C4C4"/>
<path d="M830.171 -44L1314 439.829V441.329L828.672 -44H830.171Z" fill="#C4C4C4"/>
<path d="M799.885 -44L1314 470.114V471.612L798.387 -44H799.885Z" fill="#C4C4C4"/>
<path d="M769.602 -44L1314 500.398V501.896L768.104 -44H769.602Z" fill="#C4C4C4"/>
<path d="M739.317 -44L1314 530.681V532.18L737.818 -44H739.317Z" fill="#C4C4C4"/>
<path d="M709.034 -44L1314 560.966V562.465L707.535 -44H709.034Z" fill="#C4C4C4"/>
<path d="M1314 592H1313.25L678 -43.2501V-44H678.75L1314 591.25V592Z" fill="#C4C4C4"/>
<path d="M1282.97 592L678 -12.9662V-14.4648L1284.46 592H1282.97Z" fill="#C4C4C4"/>
<path d="M1252.68 592L678 17.3175V15.8188L1254.18 592H1252.68Z" fill="#C4C4C4"/>
<path d="M1222.4 592L678 47.6012V46.1025L1223.9 592H1222.4Z" fill="#C4C4C4"/>
<path d="M1192.11 592L678 77.8864V76.3877L1193.61 592H1192.11Z" fill="#C4C4C4"/>
<path d="M1161.83 592L678 108.17V106.671L1163.33 592H1161.83Z" fill="#C4C4C4"/>
<path d="M1131.54 592L678 138.455V136.955L1133.04 592H1131.54Z" fill="#C4C4C4"/>
<path d="M1101.26 592L678 168.739V167.24L1102.76 592H1101.26Z" fill="#C4C4C4"/>
<path d="M1070.98 592L678 199.023V197.524L1072.48 592H1070.98Z" fill="#C4C4C4"/>
<path d="M1040.69 592L678 229.306V227.808L1042.19 592H1040.69Z" fill="#C4C4C4"/>
<path d="M1010.41 592L678 259.592V258.092L1011.91 592H1010.41Z" fill="#C4C4C4"/>
<path d="M980.125 592L678 289.875V288.376L981.623 592H980.125Z" fill="#C4C4C4"/>
<path d="M949.84 592L678 320.159V318.66L951.34 592H949.84Z" fill="#C4C4C4"/>
<path d="M919.556 592L678 350.444V348.945L921.055 592H919.556Z" fill="#C4C4C4"/>
<path d="M889.272 592L678 380.728V379.229L890.771 592H889.272Z" fill="#C4C4C4"/>
<path d="M858.988 592L678 411.012V409.513L860.487 592H858.988Z" fill="#C4C4C4"/>
<path d="M828.703 592L678 441.297V439.798L830.202 592H828.703Z" fill="#C4C4C4"/>
<path d="M798.42 592L678 471.58V470.082L799.918 592H798.42Z" fill="#C4C4C4"/>
<path d="M966.676 -44L1314 303.322V304.821L965.178 -44H966.676Z" fill="#C4C4C4"/>
<path d="M996.961 -44L1314 273.039V274.537L995.461 -44H996.961Z" fill="#C4C4C4"/>
<path d="M1027.24 -44L1314 242.755V244.253L1025.75 -44H1027.24Z" fill="#C4C4C4"/>
<path d="M1057.53 -44L1314 212.47V213.969L1056.03 -44H1057.53Z" fill="#C4C4C4"/>
<path d="M1087.81 -44L1314 182.186V183.685L1086.31 -44H1087.81Z" fill="#C4C4C4"/>
<path d="M1118.1 -44L1314 151.902V153.401L1116.6 -44H1118.1Z" fill="#C4C4C4"/>
<path d="M1148.38 -44L1314 121.617V123.116L1146.88 -44H1148.38Z" fill="#C4C4C4"/>
<path d="M1178.67 -44L1314 91.3335V92.8322L1177.17 -44H1178.67Z" fill="#C4C4C4"/>
<path d="M936.393 -44L1314 333.607V335.106L934.895 -44H936.393Z" fill="#C4C4C4"/>
<path d="M906.109 -44L1314 363.891V365.39L904.609 -44H906.109Z" fill="#C4C4C4"/>
<path d="M875.825 -44L1314 394.175V395.674L874.326 -44H875.825Z" fill="#C4C4C4"/>
<path d="M845.54 -44L1314 424.459V425.959L844.041 -44H845.54Z" fill="#C4C4C4"/>
<path d="M815.256 -44L1314 454.743V456.242L813.756 -44H815.256Z" fill="#C4C4C4"/>
<path d="M784.972 -44L1314 485.028V486.526L783.473 -44H784.972Z" fill="#C4C4C4"/>
<path d="M754.688 -44L1314 515.313V516.811L753.189 -44H754.688Z" fill="#C4C4C4"/>
<path d="M724.403 -44L1314 545.596V547.095L722.904 -44H724.403Z" fill="#C4C4C4"/>
<path d="M694.119 -44L1314 575.88V577.379L692.619 -44H694.119Z" fill="#C4C4C4"/>
<path d="M1298.34 592L678 -28.3363V-29.835L1299.83 592H1298.34Z" fill="#C4C4C4"/>
<path d="M1268.05 592L678 1.94741V0.44873L1269.55 592H1268.05Z" fill="#C4C4C4"/>
<path d="M1237.77 592L678 32.2316V30.7329L1239.27 592H1237.77Z" fill="#C4C4C4"/>
<path d="M1207.48 592L678 62.5162V61.0176L1208.98 592H1207.48Z" fill="#C4C4C4"/>
<path d="M1177.2 592L678 92.8V91.3013L1178.7 592H1177.2Z" fill="#C4C4C4"/>
<path d="M1146.91 592L678 123.084V121.585L1148.41 592H1146.91Z" fill="#C4C4C4"/>
<path d="M1116.63 592L678 153.369V151.87L1118.13 592H1116.63Z" fill="#C4C4C4"/>
<path d="M1086.35 592L678 183.652V182.154L1087.85 592H1086.35Z" fill="#C4C4C4"/>
<path d="M1056.06 592L678 213.937V212.438L1057.56 592H1056.06Z" fill="#C4C4C4"/>
<path d="M1025.78 592L678 244.221V242.723L1027.28 592H1025.78Z" fill="#C4C4C4"/>
<path d="M995.495 592L678 274.506V273.007L996.993 592H995.495Z" fill="#C4C4C4"/>
<path d="M965.21 592L678 304.789V303.291L966.71 592H965.21Z" fill="#C4C4C4"/>
<path d="M934.926 592L678 335.074V333.575L936.425 592H934.926Z" fill="#C4C4C4"/>
<path d="M904.642 592L678 365.358V363.859L906.141 592H904.642Z" fill="#C4C4C4"/>
<path d="M874.357 592L678 395.642V394.143L875.857 592H874.357Z" fill="#C4C4C4"/>
<path d="M844.073 592L678 425.926V424.427L845.572 592H844.073Z" fill="#C4C4C4"/>
<path d="M813.79 592L678 456.211V454.712L815.288 592H813.79Z" fill="#C4C4C4"/>
</g>
</g>
<path d="M42 478V490" stroke="black"/>
<path d="M48 484H36" stroke="black"/>
<path d="M1314 478V490" stroke="black"/>
<path d="M1320 484H1308" stroke="black"/>
<path d="M1314 64V63.5H42V64V64.5H1314V64Z" fill="#E2E8F0"/>
<path d="M1314 58V70" stroke="black"/>
<path d="M1320 64H1308" stroke="black"/>
<path d="M42 58V70" stroke="black"/>
<path d="M48 64H36" stroke="black"/>
<line x1="1315" y1="84" x2="1315" y2="178" stroke="url(#paint0_linear_604_2432)" stroke-width="2"/>
<rect x="62" y="84" width="1232" height="380" fill="url(#paint1_linear_604_2432)" stroke="#E2E8F0"/>
<defs>
<linearGradient id="paint0_linear_604_2432" x1="1313.5" y1="84" x2="1313.5" y2="178" gradientUnits="userSpaceOnUse">
<stop stop-color="#E2E8F0"/>
<stop offset="0.533654" stop-color="#82AAFE"/>
<stop offset="1" stop-color="#E2E8F0"/>
</linearGradient>
<linearGradient id="paint1_linear_604_2432" x1="1198.5" y1="98" x2="1198.5" y2="452" gradientUnits="userSpaceOnUse">
<stop stop-color="#DAE9FB"/>
<stop offset="0.567204" stop-color="#F4F8FE"/>
<stop offset="1" stop-color="#FEFEFE"/>
</linearGradient>
<clipPath id="clip0_604_2432">
<rect width="1272" height="420" fill="white" transform="translate(42 64)"/>
</clipPath>
<clipPath id="clip1_604_2432">
<rect width="636" height="636" fill="white" transform="translate(42 -44)"/>
</clipPath>
<clipPath id="clip2_604_2432">
<rect width="636" height="636" fill="white" transform="translate(678 -44)"/>
</clipPath>
</defs>
</svg>
