<svg width="411" height="417" viewBox="0 0 411 417" fill="none" xmlns="http://www.w3.org/2000/svg">
<rect x="6.5" y="6.5" width="398" height="404" fill="#FAFAFA"/>
<mask id="mask0_641_6182" style="mask-type:alpha" maskUnits="userSpaceOnUse" x="6" y="6" width="399" height="405">
<rect x="6.5" y="6.5" width="398" height="404" fill="#FAFAFA"/>
</mask>
<g mask="url(#mask0_641_6182)">
<g clip-path="url(#clip0_641_6182)">
<path d="M53.7834 -36.5L193.5 103.216V103.794L53.2061 -36.5H53.7834Z" fill="#C4C4C4"/>
<path d="M65.4494 -36.5L193.5 91.5505V92.1278L64.8721 -36.5H65.4494Z" fill="#C4C4C4"/>
<path d="M77.1154 -36.5L193.5 79.8845V80.4619L76.5381 -36.5H77.1154Z" fill="#C4C4C4"/>
<path d="M88.7814 -36.5L193.5 68.2182V68.7955L88.2041 -36.5H88.7814Z" fill="#C4C4C4"/>
<path d="M100.448 -36.5L193.5 56.5522V57.1296L99.8701 -36.5H100.448Z" fill="#C4C4C4"/>
<path d="M112.113 -36.5L193.5 44.8863V45.4636L111.536 -36.5H112.113Z" fill="#C4C4C4"/>
<path d="M123.779 -36.5L193.5 33.2199V33.7977L123.202 -36.5H123.779Z" fill="#C4C4C4"/>
<path d="M135.445 -36.5L193.499 21.554V22.1313L134.868 -36.5H135.445Z" fill="#C4C4C4"/>
<path d="M147.112 -36.5L193.5 9.88807V10.4654L146.534 -36.5H147.112Z" fill="#C4C4C4"/>
<path d="M42.1174 -36.5L193.5 114.883V115.46L41.54 -36.5H42.1174Z" fill="#C4C4C4"/>
<path d="M30.4508 -36.5L193.5 126.549V127.126L29.873 -36.5H30.4508Z" fill="#C4C4C4"/>
<path d="M18.7858 -36.5L193.5 138.215V138.792L18.208 -36.5H18.7858Z" fill="#C4C4C4"/>
<path d="M7.11931 -36.5L193.5 149.881V150.458L6.54199 -36.5H7.11931Z" fill="#C4C4C4"/>
<path d="M-4.54768 -36.5L193.5 161.547V162.124L-5.125 -36.5H-4.54768Z" fill="#C4C4C4"/>
<path d="M-16.2137 -36.5L193.5 173.213V173.79L-16.791 -36.5H-16.2137Z" fill="#C4C4C4"/>
<path d="M-27.8797 -36.5L193.5 184.879V185.456L-28.457 -36.5H-27.8797Z" fill="#C4C4C4"/>
<path d="M-39.5448 -36.5L193.5 196.545V197.123L-40.1221 -36.5H-39.5448Z" fill="#C4C4C4"/>
<path d="M193.5 208.5H193.211L-51.5 -36.2111V-36.5H-51.2111L193.5 208.211V208.5Z" fill="#C4C4C4"/>
<path d="M181.545 208.5L-51.5 -24.5452V-25.1226L182.123 208.5H181.545Z" fill="#C4C4C4"/>
<path d="M169.879 208.5L-51.5 -12.8792V-13.4565L170.457 208.5H169.879Z" fill="#C4C4C4"/>
<path d="M158.213 208.5L-51.5 -1.21321V-1.79053L158.79 208.5H158.213Z" fill="#C4C4C4"/>
<path d="M146.547 208.5L-51.5 10.4531V9.87573L147.124 208.5H146.547Z" fill="#C4C4C4"/>
<path d="M134.881 208.5L-51.5 22.1191V21.5417L135.458 208.5H134.881Z" fill="#C4C4C4"/>
<path d="M123.215 208.5L-51.5 33.7853V33.2075L123.792 208.5H123.215Z" fill="#C4C4C4"/>
<path d="M111.549 208.5L-51.5 45.4513V44.874L112.126 208.5H111.549Z" fill="#C4C4C4"/>
<path d="M99.8828 208.5L-51.5 57.1171V56.5398L100.46 208.5H99.8828Z" fill="#C4C4C4"/>
<path d="M88.2164 208.5L-51.5 68.7831V68.2058L88.7942 208.5H88.2164Z" fill="#C4C4C4"/>
<path d="M76.5505 208.5L-51.5 80.4496V79.8718L77.1278 208.5H76.5505Z" fill="#C4C4C4"/>
<path d="M64.8845 208.5L-51.5 92.1154V91.5381L65.4619 208.5H64.8845Z" fill="#C4C4C4"/>
<path d="M53.2182 208.5L-51.5 103.781V103.204L53.7959 208.5H53.2182Z" fill="#C4C4C4"/>
<path d="M41.5522 208.5L-51.5 115.448V114.87L42.1296 208.5H41.5522Z" fill="#C4C4C4"/>
<path d="M29.8863 208.5L-51.5 127.114V126.536L30.4636 208.5H29.8863Z" fill="#C4C4C4"/>
<path d="M18.2204 208.5L-51.5 138.78V138.202L18.7977 208.5H18.2204Z" fill="#C4C4C4"/>
<path d="M6.554 208.5L-51.5 150.446V149.869L7.13133 208.5H6.554Z" fill="#C4C4C4"/>
<path d="M59.7043 -36.5L193.5 97.2956V97.8729L59.127 -36.5H59.7043Z" fill="#C4C4C4"/>
<path d="M71.3707 -36.5L193.5 85.6296V86.207L70.793 -36.5H71.3707Z" fill="#C4C4C4"/>
<path d="M83.0363 -36.5L193.5 73.9637V74.541L82.459 -36.5H83.0363Z" fill="#C4C4C4"/>
<path d="M94.7023 -36.5L193.5 62.2974V62.8747L94.125 -36.5H94.7023Z" fill="#C4C4C4"/>
<path d="M106.369 -36.5L193.5 50.6314V51.2087L105.791 -36.5H106.369Z" fill="#C4C4C4"/>
<path d="M118.034 -36.5L193.5 38.9655V39.5428L117.457 -36.5H118.034Z" fill="#C4C4C4"/>
<path d="M129.7 -36.5L193.5 27.2991V27.8764L129.123 -36.5H129.7Z" fill="#C4C4C4"/>
<path d="M141.366 -36.5L193.5 15.6332V16.2105L140.789 -36.5H141.366Z" fill="#C4C4C4"/>
<path d="M48.0382 -36.5L193.5 108.962V109.539L47.4609 -36.5H48.0382Z" fill="#C4C4C4"/>
<path d="M36.3727 -36.5L193.501 120.628V121.205L35.7949 -36.5H36.3727Z" fill="#C4C4C4"/>
<path d="M24.7062 -36.5L193.5 132.294V132.871L24.1289 -36.5H24.7062Z" fill="#C4C4C4"/>
<path d="M13.0402 -36.5L193.5 143.96V144.538L12.4629 -36.5H13.0402Z" fill="#C4C4C4"/>
<path d="M1.37365 -36.5L193.5 155.626V156.203L0.795898 -36.5H1.37365Z" fill="#C4C4C4"/>
<path d="M-10.2924 -36.5L193.5 167.292V167.869L-10.8701 -36.5H-10.2924Z" fill="#C4C4C4"/>
<path d="M-21.9588 -36.5L193.5 178.958V179.536L-22.5361 -36.5H-21.9588Z" fill="#C4C4C4"/>
<path d="M-33.6239 -36.5L193.501 190.624V191.202L-34.2012 -36.5H-33.6239Z" fill="#C4C4C4"/>
<path d="M-45.2904 -36.5L193.5 202.29V202.868L-45.8682 -36.5H-45.2904Z" fill="#C4C4C4"/>
<path d="M187.466 208.5L-51.5 -30.4659V-31.0432L188.043 208.5H187.466Z" fill="#C4C4C4"/>
<path d="M175.8 208.5L-51.5 -18.8001V-19.3774L176.377 208.5H175.8Z" fill="#C4C4C4"/>
<path d="M164.134 208.5L-51.5 -7.13411V-7.71143L164.711 208.5H164.134Z" fill="#C4C4C4"/>
<path d="M152.468 208.5L-51.5 4.53215V3.95483L153.045 208.5H152.468Z" fill="#C4C4C4"/>
<path d="M140.802 208.5L-51.5 16.1982V15.6208L141.379 208.5H140.802Z" fill="#C4C4C4"/>
<path d="M129.135 208.5L-51.5 27.8642V27.2869L129.713 208.5H129.135Z" fill="#C4C4C4"/>
<path d="M117.47 208.5L-51.5 39.5304V38.9531L118.047 208.5H117.47Z" fill="#C4C4C4"/>
<path d="M105.804 208.5L-51.5 51.1965V50.6191L106.381 208.5H105.804Z" fill="#C4C4C4"/>
<path d="M94.1372 208.5L-51.5 62.8622V62.2849L94.715 208.5H94.1372Z" fill="#C4C4C4"/>
<path d="M82.4713 208.5L-51.5 74.5287V73.9514L83.0486 208.5H82.4713Z" fill="#C4C4C4"/>
<path d="M70.8054 208.5L-51.5 86.1948V85.6174L71.3827 208.5H70.8054Z" fill="#C4C4C4"/>
<path d="M59.139 208.5L-51.5 97.8605V97.2832L59.7167 208.5H59.139Z" fill="#C4C4C4"/>
<path d="M47.4731 208.5L-51.5 109.527V108.95L48.0504 208.5H47.4731Z" fill="#C4C4C4"/>
<path d="M35.8071 208.5L-51.5 121.193V120.615L36.3844 208.5H35.8071Z" fill="#C4C4C4"/>
<path d="M24.1408 208.5L-51.5 132.859V132.281L24.7185 208.5H24.1408Z" fill="#C4C4C4"/>
<path d="M12.4748 208.5L-51.5 144.525V143.948L13.0521 208.5H12.4748Z" fill="#C4C4C4"/>
</g>
<g clip-path="url(#clip1_641_6182)">
<path d="M298.783 -36.5L438.5 103.216V103.794L298.206 -36.5H298.783Z" fill="#C4C4C4"/>
<path d="M310.449 -36.5L438.5 91.5505V92.1278L309.872 -36.5H310.449Z" fill="#C4C4C4"/>
<path d="M322.115 -36.5L438.5 79.8845V80.4619L321.538 -36.5H322.115Z" fill="#C4C4C4"/>
<path d="M333.781 -36.5L438.5 68.2182V68.7955L333.204 -36.5H333.781Z" fill="#C4C4C4"/>
<path d="M345.448 -36.5L438.5 56.5522V57.1296L344.87 -36.5H345.448Z" fill="#C4C4C4"/>
<path d="M357.113 -36.5L438.5 44.8863V45.4636L356.536 -36.5H357.113Z" fill="#C4C4C4"/>
<path d="M368.779 -36.5L438.5 33.2199V33.7977L368.202 -36.5H368.779Z" fill="#C4C4C4"/>
<path d="M380.445 -36.5L438.499 21.554V22.1313L379.868 -36.5H380.445Z" fill="#C4C4C4"/>
<path d="M392.112 -36.5L438.5 9.88807V10.4654L391.534 -36.5H392.112Z" fill="#C4C4C4"/>
<path d="M287.117 -36.5L438.5 114.883V115.46L286.54 -36.5H287.117Z" fill="#C4C4C4"/>
<path d="M275.451 -36.5L438.5 126.549V127.126L274.873 -36.5H275.451Z" fill="#C4C4C4"/>
<path d="M263.786 -36.5L438.5 138.215V138.792L263.208 -36.5H263.786Z" fill="#C4C4C4"/>
<path d="M252.119 -36.5L438.5 149.881V150.458L251.542 -36.5H252.119Z" fill="#C4C4C4"/>
<path d="M240.452 -36.5L438.5 161.547V162.124L239.875 -36.5H240.452Z" fill="#C4C4C4"/>
<path d="M228.786 -36.5L438.5 173.213V173.79L228.209 -36.5H228.786Z" fill="#C4C4C4"/>
<path d="M217.12 -36.5L438.5 184.879V185.456L216.543 -36.5H217.12Z" fill="#C4C4C4"/>
<path d="M205.455 -36.5L438.5 196.545V197.123L204.878 -36.5H205.455Z" fill="#C4C4C4"/>
<path d="M438.5 208.5H438.211L193.5 -36.2111V-36.5H193.789L438.5 208.211V208.5Z" fill="#C4C4C4"/>
<path d="M426.545 208.5L193.5 -24.5452V-25.1226L427.123 208.5H426.545Z" fill="#C4C4C4"/>
<path d="M414.879 208.5L193.5 -12.8792V-13.4565L415.457 208.5H414.879Z" fill="#C4C4C4"/>
<path d="M403.213 208.5L193.5 -1.21321V-1.79053L403.79 208.5H403.213Z" fill="#C4C4C4"/>
<path d="M391.547 208.5L193.5 10.4531V9.87573L392.124 208.5H391.547Z" fill="#C4C4C4"/>
<path d="M379.881 208.5L193.5 22.1191V21.5417L380.458 208.5H379.881Z" fill="#C4C4C4"/>
<path d="M368.215 208.5L193.5 33.7853V33.2075L368.792 208.5H368.215Z" fill="#C4C4C4"/>
<path d="M356.549 208.5L193.5 45.4513V44.874L357.126 208.5H356.549Z" fill="#C4C4C4"/>
<path d="M344.883 208.5L193.5 57.1171V56.5398L345.46 208.5H344.883Z" fill="#C4C4C4"/>
<path d="M333.216 208.5L193.5 68.7831V68.2058L333.794 208.5H333.216Z" fill="#C4C4C4"/>
<path d="M321.55 208.5L193.5 80.4496V79.8718L322.128 208.5H321.55Z" fill="#C4C4C4"/>
<path d="M309.885 208.5L193.5 92.1154V91.5381L310.462 208.5H309.885Z" fill="#C4C4C4"/>
<path d="M298.218 208.5L193.5 103.781V103.204L298.796 208.5H298.218Z" fill="#C4C4C4"/>
<path d="M286.552 208.5L193.5 115.448V114.87L287.13 208.5H286.552Z" fill="#C4C4C4"/>
<path d="M274.886 208.5L193.5 127.114V126.536L275.464 208.5H274.886Z" fill="#C4C4C4"/>
<path d="M263.22 208.5L193.5 138.78V138.202L263.798 208.5H263.22Z" fill="#C4C4C4"/>
<path d="M251.554 208.5L193.5 150.446V149.869L252.131 208.5H251.554Z" fill="#C4C4C4"/>
<path d="M239.888 208.5L193.5 162.112V161.535L240.465 208.5H239.888Z" fill="#C4C4C4"/>
<path d="M228.222 208.5L193.5 173.778V173.2L228.799 208.5H228.222Z" fill="#C4C4C4"/>
<path d="M216.556 208.5L193.5 185.444V184.866L217.133 208.5H216.556Z" fill="#C4C4C4"/>
<path d="M204.89 208.5L193.5 197.11V196.533L205.467 208.5H204.89Z" fill="#C4C4C4"/>
<path d="M193.5 208.5V208.199L193.801 208.5H193.5Z" fill="#C4C4C4"/>
<path d="M304.704 -36.5L438.5 97.2956V97.8729L304.127 -36.5H304.704Z" fill="#C4C4C4"/>
<path d="M316.371 -36.5L438.5 85.6296V86.207L315.793 -36.5H316.371Z" fill="#C4C4C4"/>
<path d="M328.036 -36.5L438.5 73.9637V74.541L327.459 -36.5H328.036Z" fill="#C4C4C4"/>
<path d="M339.702 -36.5L438.5 62.2974V62.8747L339.125 -36.5H339.702Z" fill="#C4C4C4"/>
<path d="M351.369 -36.5L438.5 50.6314V51.2087L350.791 -36.5H351.369Z" fill="#C4C4C4"/>
<path d="M363.034 -36.5L438.5 38.9655V39.5428L362.457 -36.5H363.034Z" fill="#C4C4C4"/>
<path d="M374.7 -36.5L438.5 27.2991V27.8764L374.123 -36.5H374.7Z" fill="#C4C4C4"/>
<path d="M386.366 -36.5L438.5 15.6332V16.2105L385.789 -36.5H386.366Z" fill="#C4C4C4"/>
<path d="M293.038 -36.5L438.5 108.962V109.539L292.461 -36.5H293.038Z" fill="#C4C4C4"/>
<path d="M281.373 -36.5L438.501 120.628V121.205L280.795 -36.5H281.373Z" fill="#C4C4C4"/>
<path d="M269.706 -36.5L438.5 132.294V132.871L269.129 -36.5H269.706Z" fill="#C4C4C4"/>
<path d="M258.04 -36.5L438.5 143.96V144.538L257.463 -36.5H258.04Z" fill="#C4C4C4"/>
<path d="M246.374 -36.5L438.5 155.626V156.203L245.796 -36.5H246.374Z" fill="#C4C4C4"/>
<path d="M234.708 -36.5L438.5 167.292V167.869L234.13 -36.5H234.708Z" fill="#C4C4C4"/>
<path d="M223.041 -36.5L438.5 178.958V179.536L222.464 -36.5H223.041Z" fill="#C4C4C4"/>
<path d="M211.376 -36.5L438.501 190.624V191.202L210.799 -36.5H211.376Z" fill="#C4C4C4"/>
<path d="M199.71 -36.5L438.5 202.29V202.868L199.132 -36.5H199.71Z" fill="#C4C4C4"/>
<path d="M432.466 208.5L193.5 -30.4659V-31.0432L433.043 208.5H432.466Z" fill="#C4C4C4"/>
<path d="M420.8 208.5L193.5 -18.8001V-19.3774L421.377 208.5H420.8Z" fill="#C4C4C4"/>
<path d="M409.134 208.5L193.5 -7.13411V-7.71143L409.711 208.5H409.134Z" fill="#C4C4C4"/>
<path d="M397.468 208.5L193.5 4.53215V3.95483L398.045 208.5H397.468Z" fill="#C4C4C4"/>
<path d="M385.802 208.5L193.5 16.1982V15.6208L386.379 208.5H385.802Z" fill="#C4C4C4"/>
<path d="M374.135 208.5L193.5 27.8642V27.2869L374.713 208.5H374.135Z" fill="#C4C4C4"/>
<path d="M362.47 208.5L193.5 39.5304V38.9531L363.047 208.5H362.47Z" fill="#C4C4C4"/>
<path d="M350.804 208.5L193.5 51.1965V50.6191L351.381 208.5H350.804Z" fill="#C4C4C4"/>
<path d="M339.137 208.5L193.5 62.8622V62.2849L339.715 208.5H339.137Z" fill="#C4C4C4"/>
<path d="M327.471 208.5L193.5 74.5287V73.9514L328.049 208.5H327.471Z" fill="#C4C4C4"/>
<path d="M315.805 208.5L193.5 86.1948V85.6174L316.383 208.5H315.805Z" fill="#C4C4C4"/>
<path d="M304.139 208.5L193.5 97.8605V97.2832L304.717 208.5H304.139Z" fill="#C4C4C4"/>
<path d="M292.473 208.5L193.5 109.527V108.95L293.05 208.5H292.473Z" fill="#C4C4C4"/>
<path d="M280.807 208.5L193.5 121.193V120.615L281.384 208.5H280.807Z" fill="#C4C4C4"/>
<path d="M269.141 208.5L193.5 132.859V132.281L269.719 208.5H269.141Z" fill="#C4C4C4"/>
<path d="M257.475 208.5L193.5 144.525V143.948L258.052 208.5H257.475Z" fill="#C4C4C4"/>
<path d="M245.809 208.5L193.5 156.191V155.614L246.386 208.5H245.809Z" fill="#C4C4C4"/>
<path d="M234.143 208.5L193.5 167.857V167.28L234.72 208.5H234.143Z" fill="#C4C4C4"/>
<path d="M222.477 208.5L193.5 179.523V178.946L223.054 208.5H222.477Z" fill="#C4C4C4"/>
<path d="M210.811 208.5L193.5 191.189V190.612L211.388 208.5H210.811Z" fill="#C4C4C4"/>
<path d="M199.145 208.5L193.5 202.855V202.278L199.722 208.5H199.145Z" fill="#C4C4C4"/>
</g>
<g clip-path="url(#clip2_641_6182)">
<path d="M53.7834 208.5L193.5 348.216V348.794L53.2061 208.5H53.7834Z" fill="#C4C4C4"/>
<path d="M65.4494 208.5L193.5 336.55V337.128L64.8721 208.5H65.4494Z" fill="#C4C4C4"/>
<path d="M77.1154 208.5L193.5 324.885V325.462L76.5381 208.5H77.1154Z" fill="#C4C4C4"/>
<path d="M88.7814 208.5L193.5 313.218V313.795L88.2041 208.5H88.7814Z" fill="#C4C4C4"/>
<path d="M100.448 208.5L193.5 301.552V302.13L99.8701 208.5H100.448Z" fill="#C4C4C4"/>
<path d="M112.113 208.5L193.5 289.886V290.464L111.536 208.5H112.113Z" fill="#C4C4C4"/>
<path d="M123.779 208.5L193.5 278.22V278.798L123.202 208.5H123.779Z" fill="#C4C4C4"/>
<path d="M135.445 208.5L193.499 266.554V267.131L134.868 208.5H135.445Z" fill="#C4C4C4"/>
<path d="M147.112 208.5L193.5 254.888V255.465L146.534 208.5H147.112Z" fill="#C4C4C4"/>
<path d="M158.778 208.5L193.5 243.222V243.799L158.2 208.5H158.778Z" fill="#C4C4C4"/>
<path d="M170.444 208.5L193.5 231.556V232.133L169.866 208.5H170.444Z" fill="#C4C4C4"/>
<path d="M182.111 208.5L193.5 219.89V220.467L181.533 208.5H182.111Z" fill="#C4C4C4"/>
<path d="M193.499 208.5V208.801L193.198 208.5H193.499Z" fill="#C4C4C4"/>
<path d="M42.1174 208.5L193.5 359.883V360.46L41.54 208.5H42.1174Z" fill="#C4C4C4"/>
<path d="M30.4508 208.5L193.5 371.549V372.126L29.873 208.5H30.4508Z" fill="#C4C4C4"/>
<path d="M18.7858 208.5L193.5 383.215V383.792L18.208 208.5H18.7858Z" fill="#C4C4C4"/>
<path d="M7.11931 208.5L193.5 394.881V395.458L6.54199 208.5H7.11931Z" fill="#C4C4C4"/>
<path d="M-4.54768 208.5L193.5 406.547V407.124L-5.125 208.5H-4.54768Z" fill="#C4C4C4"/>
<path d="M-16.2137 208.5L193.5 418.213V418.79L-16.791 208.5H-16.2137Z" fill="#C4C4C4"/>
<path d="M-27.8797 208.5L193.5 429.879V430.456L-28.457 208.5H-27.8797Z" fill="#C4C4C4"/>
<path d="M-39.5448 208.5L193.5 441.545V442.123L-40.1221 208.5H-39.5448Z" fill="#C4C4C4"/>
<path d="M193.5 453.5H193.211L-51.5 208.789V208.5H-51.2111L193.5 453.211V453.5Z" fill="#C4C4C4"/>
<path d="M181.545 453.5L-51.5 220.455V219.877L182.123 453.5H181.545Z" fill="#C4C4C4"/>
<path d="M169.879 453.5L-51.5 232.121V231.543L170.457 453.5H169.879Z" fill="#C4C4C4"/>
<path d="M158.213 453.5L-51.5 243.787V243.209L158.79 453.5H158.213Z" fill="#C4C4C4"/>
<path d="M146.547 453.5L-51.5 255.453V254.876L147.124 453.5H146.547Z" fill="#C4C4C4"/>
<path d="M134.881 453.5L-51.5 267.119V266.542L135.458 453.5H134.881Z" fill="#C4C4C4"/>
<path d="M123.215 453.5L-51.5 278.785V278.208L123.792 453.5H123.215Z" fill="#C4C4C4"/>
<path d="M111.549 453.5L-51.5 290.451V289.874L112.126 453.5H111.549Z" fill="#C4C4C4"/>
<path d="M99.8828 453.5L-51.5 302.117V301.54L100.46 453.5H99.8828Z" fill="#C4C4C4"/>
<path d="M88.2164 453.5L-51.5 313.783V313.206L88.7942 453.5H88.2164Z" fill="#C4C4C4"/>
<path d="M76.5505 453.5L-51.5 325.45V324.872L77.1278 453.5H76.5505Z" fill="#C4C4C4"/>
<path d="M64.8845 453.5L-51.5 337.115V336.538L65.4619 453.5H64.8845Z" fill="#C4C4C4"/>
<path d="M53.2182 453.5L-51.5 348.781V348.204L53.7959 453.5H53.2182Z" fill="#C4C4C4"/>
<path d="M41.5522 453.5L-51.5 360.448V359.87L42.1296 453.5H41.5522Z" fill="#C4C4C4"/>
<path d="M29.8863 453.5L-51.5 372.114V371.536L30.4636 453.5H29.8863Z" fill="#C4C4C4"/>
<path d="M18.2204 453.5L-51.5 383.78V383.202L18.7977 453.5H18.2204Z" fill="#C4C4C4"/>
<path d="M6.554 453.5L-51.5 395.446V394.869L7.13133 453.5H6.554Z" fill="#C4C4C4"/>
<path d="M59.7043 208.5L193.5 342.296V342.873L59.127 208.5H59.7043Z" fill="#C4C4C4"/>
<path d="M71.3707 208.5L193.5 330.63V331.207L70.793 208.5H71.3707Z" fill="#C4C4C4"/>
<path d="M83.0363 208.5L193.5 318.964V319.541L82.459 208.5H83.0363Z" fill="#C4C4C4"/>
<path d="M94.7023 208.5L193.5 307.297V307.875L94.125 208.5H94.7023Z" fill="#C4C4C4"/>
<path d="M106.369 208.5L193.5 295.631V296.209L105.791 208.5H106.369Z" fill="#C4C4C4"/>
<path d="M118.034 208.5L193.5 283.965V284.543L117.457 208.5H118.034Z" fill="#C4C4C4"/>
<path d="M129.7 208.5L193.5 272.299V272.876L129.123 208.5H129.7Z" fill="#C4C4C4"/>
<path d="M141.366 208.5L193.5 260.633V261.21L140.789 208.5H141.366Z" fill="#C4C4C4"/>
<path d="M153.032 208.5L193.5 248.967V249.545L152.455 208.5H153.032Z" fill="#C4C4C4"/>
<path d="M164.698 208.5L193.5 237.301V237.879L164.121 208.5H164.698Z" fill="#C4C4C4"/>
<path d="M176.365 208.5L193.5 225.635V226.212L175.787 208.5H176.365Z" fill="#C4C4C4"/>
<path d="M188.031 208.5L193.5 213.969V214.546L187.454 208.5H188.031Z" fill="#C4C4C4"/>
<path d="M48.0382 208.5L193.5 353.962V354.539L47.4609 208.5H48.0382Z" fill="#C4C4C4"/>
<path d="M36.3727 208.5L193.501 365.628V366.205L35.7949 208.5H36.3727Z" fill="#C4C4C4"/>
<path d="M24.7062 208.5L193.5 377.294V377.871L24.1289 208.5H24.7062Z" fill="#C4C4C4"/>
<path d="M13.0402 208.5L193.5 388.96V389.538L12.4629 208.5H13.0402Z" fill="#C4C4C4"/>
<path d="M1.37365 208.5L193.5 400.626V401.203L0.795898 208.5H1.37365Z" fill="#C4C4C4"/>
<path d="M-10.2924 208.5L193.5 412.292V412.869L-10.8701 208.5H-10.2924Z" fill="#C4C4C4"/>
<path d="M-21.9588 208.5L193.5 423.958V424.536L-22.5361 208.5H-21.9588Z" fill="#C4C4C4"/>
<path d="M-33.6239 208.5L193.501 435.624V436.202L-34.2012 208.5H-33.6239Z" fill="#C4C4C4"/>
<path d="M-45.2904 208.5L193.5 447.29V447.868L-45.8682 208.5H-45.2904Z" fill="#C4C4C4"/>
<path d="M187.466 453.5L-51.5 214.534V213.957L188.043 453.5H187.466Z" fill="#C4C4C4"/>
<path d="M175.8 453.5L-51.5 226.2V225.623L176.377 453.5H175.8Z" fill="#C4C4C4"/>
<path d="M164.134 453.5L-51.5 237.866V237.289L164.711 453.5H164.134Z" fill="#C4C4C4"/>
<path d="M152.468 453.5L-51.5 249.532V248.955L153.045 453.5H152.468Z" fill="#C4C4C4"/>
<path d="M140.802 453.5L-51.5 261.198V260.621L141.379 453.5H140.802Z" fill="#C4C4C4"/>
<path d="M129.135 453.5L-51.5 272.864V272.287L129.713 453.5H129.135Z" fill="#C4C4C4"/>
<path d="M117.47 453.5L-51.5 284.53V283.953L118.047 453.5H117.47Z" fill="#C4C4C4"/>
<path d="M105.804 453.5L-51.5 296.196V295.619L106.381 453.5H105.804Z" fill="#C4C4C4"/>
<path d="M94.1372 453.5L-51.5 307.862V307.285L94.715 453.5H94.1372Z" fill="#C4C4C4"/>
<path d="M82.4713 453.5L-51.5 319.529V318.951L83.0486 453.5H82.4713Z" fill="#C4C4C4"/>
<path d="M70.8054 453.5L-51.5 331.195V330.617L71.3827 453.5H70.8054Z" fill="#C4C4C4"/>
<path d="M59.139 453.5L-51.5 342.861V342.283L59.7167 453.5H59.139Z" fill="#C4C4C4"/>
<path d="M47.4731 453.5L-51.5 354.527V353.95L48.0504 453.5H47.4731Z" fill="#C4C4C4"/>
<path d="M35.8071 453.5L-51.5 366.193V365.615L36.3844 453.5H35.8071Z" fill="#C4C4C4"/>
<path d="M24.1408 453.5L-51.5 377.859V377.281L24.7185 453.5H24.1408Z" fill="#C4C4C4"/>
<path d="M12.4748 453.5L-51.5 389.525V388.948L13.0521 453.5H12.4748Z" fill="#C4C4C4"/>
</g>
<g clip-path="url(#clip3_641_6182)">
<path d="M298.783 208.5L438.5 348.216V348.794L298.206 208.5H298.783Z" fill="#C4C4C4"/>
<path d="M310.449 208.5L438.5 336.55V337.128L309.872 208.5H310.449Z" fill="#C4C4C4"/>
<path d="M322.115 208.5L438.5 324.885V325.462L321.538 208.5H322.115Z" fill="#C4C4C4"/>
<path d="M333.781 208.5L438.5 313.218V313.795L333.204 208.5H333.781Z" fill="#C4C4C4"/>
<path d="M345.448 208.5L438.5 301.552V302.13L344.87 208.5H345.448Z" fill="#C4C4C4"/>
<path d="M357.113 208.5L438.5 289.886V290.464L356.536 208.5H357.113Z" fill="#C4C4C4"/>
<path d="M368.779 208.5L438.5 278.22V278.798L368.202 208.5H368.779Z" fill="#C4C4C4"/>
<path d="M380.445 208.5L438.499 266.554V267.131L379.868 208.5H380.445Z" fill="#C4C4C4"/>
<path d="M392.112 208.5L438.5 254.888V255.465L391.534 208.5H392.112Z" fill="#C4C4C4"/>
<path d="M403.778 208.5L438.5 243.222V243.799L403.2 208.5H403.778Z" fill="#C4C4C4"/>
<path d="M287.117 208.5L438.5 359.883V360.46L286.54 208.5H287.117Z" fill="#C4C4C4"/>
<path d="M275.451 208.5L438.5 371.549V372.126L274.873 208.5H275.451Z" fill="#C4C4C4"/>
<path d="M263.786 208.5L438.5 383.215V383.792L263.208 208.5H263.786Z" fill="#C4C4C4"/>
<path d="M252.119 208.5L438.5 394.881V395.458L251.542 208.5H252.119Z" fill="#C4C4C4"/>
<path d="M240.452 208.5L438.5 406.547V407.124L239.875 208.5H240.452Z" fill="#C4C4C4"/>
<path d="M228.786 208.5L438.5 418.213V418.79L228.209 208.5H228.786Z" fill="#C4C4C4"/>
<path d="M217.12 208.5L438.5 429.879V430.456L216.543 208.5H217.12Z" fill="#C4C4C4"/>
<path d="M205.455 208.5L438.5 441.545V442.123L204.878 208.5H205.455Z" fill="#C4C4C4"/>
<path d="M438.5 453.5H438.211L193.5 208.789V208.5H193.789L438.5 453.211V453.5Z" fill="#C4C4C4"/>
<path d="M426.545 453.5L193.5 220.455V219.877L427.123 453.5H426.545Z" fill="#C4C4C4"/>
<path d="M414.879 453.5L193.5 232.121V231.543L415.457 453.5H414.879Z" fill="#C4C4C4"/>
<path d="M403.213 453.5L193.5 243.787V243.209L403.79 453.5H403.213Z" fill="#C4C4C4"/>
<path d="M391.547 453.5L193.5 255.453V254.876L392.124 453.5H391.547Z" fill="#C4C4C4"/>
<path d="M379.881 453.5L193.5 267.119V266.542L380.458 453.5H379.881Z" fill="#C4C4C4"/>
<path d="M368.215 453.5L193.5 278.785V278.208L368.792 453.5H368.215Z" fill="#C4C4C4"/>
<path d="M356.549 453.5L193.5 290.451V289.874L357.126 453.5H356.549Z" fill="#C4C4C4"/>
<path d="M344.883 453.5L193.5 302.117V301.54L345.46 453.5H344.883Z" fill="#C4C4C4"/>
<path d="M333.216 453.5L193.5 313.783V313.206L333.794 453.5H333.216Z" fill="#C4C4C4"/>
<path d="M321.55 453.5L193.5 325.45V324.872L322.128 453.5H321.55Z" fill="#C4C4C4"/>
<path d="M309.885 453.5L193.5 337.115V336.538L310.462 453.5H309.885Z" fill="#C4C4C4"/>
<path d="M298.218 453.5L193.5 348.781V348.204L298.796 453.5H298.218Z" fill="#C4C4C4"/>
<path d="M286.552 453.5L193.5 360.448V359.87L287.13 453.5H286.552Z" fill="#C4C4C4"/>
<path d="M274.886 453.5L193.5 372.114V371.536L275.464 453.5H274.886Z" fill="#C4C4C4"/>
<path d="M263.22 453.5L193.5 383.78V383.202L263.798 453.5H263.22Z" fill="#C4C4C4"/>
<path d="M251.554 453.5L193.5 395.446V394.869L252.131 453.5H251.554Z" fill="#C4C4C4"/>
<path d="M239.888 453.5L193.5 407.112V406.535L240.465 453.5H239.888Z" fill="#C4C4C4"/>
<path d="M304.704 208.5L438.5 342.296V342.873L304.127 208.5H304.704Z" fill="#C4C4C4"/>
<path d="M316.371 208.5L438.5 330.63V331.207L315.793 208.5H316.371Z" fill="#C4C4C4"/>
<path d="M328.036 208.5L438.5 318.964V319.541L327.459 208.5H328.036Z" fill="#C4C4C4"/>
<path d="M339.702 208.5L438.5 307.297V307.875L339.125 208.5H339.702Z" fill="#C4C4C4"/>
<path d="M351.369 208.5L438.5 295.631V296.209L350.791 208.5H351.369Z" fill="#C4C4C4"/>
<path d="M363.034 208.5L438.5 283.965V284.543L362.457 208.5H363.034Z" fill="#C4C4C4"/>
<path d="M374.7 208.5L438.5 272.299V272.876L374.123 208.5H374.7Z" fill="#C4C4C4"/>
<path d="M386.366 208.5L438.5 260.633V261.21L385.789 208.5H386.366Z" fill="#C4C4C4"/>
<path d="M398.032 208.5L438.5 248.967V249.545L397.455 208.5H398.032Z" fill="#C4C4C4"/>
<path d="M293.038 208.5L438.5 353.962V354.539L292.461 208.5H293.038Z" fill="#C4C4C4"/>
<path d="M281.373 208.5L438.501 365.628V366.205L280.795 208.5H281.373Z" fill="#C4C4C4"/>
<path d="M269.706 208.5L438.5 377.294V377.871L269.129 208.5H269.706Z" fill="#C4C4C4"/>
<path d="M258.04 208.5L438.5 388.96V389.538L257.463 208.5H258.04Z" fill="#C4C4C4"/>
<path d="M246.374 208.5L438.5 400.626V401.203L245.796 208.5H246.374Z" fill="#C4C4C4"/>
<path d="M234.708 208.5L438.5 412.292V412.869L234.13 208.5H234.708Z" fill="#C4C4C4"/>
<path d="M223.041 208.5L438.5 423.958V424.536L222.464 208.5H223.041Z" fill="#C4C4C4"/>
<path d="M211.376 208.5L438.501 435.624V436.202L210.799 208.5H211.376Z" fill="#C4C4C4"/>
<path d="M199.71 208.5L438.5 447.29V447.868L199.132 208.5H199.71Z" fill="#C4C4C4"/>
<path d="M432.466 453.5L193.5 214.534V213.957L433.043 453.5H432.466Z" fill="#C4C4C4"/>
<path d="M420.8 453.5L193.5 226.2V225.623L421.377 453.5H420.8Z" fill="#C4C4C4"/>
<path d="M409.134 453.5L193.5 237.866V237.289L409.711 453.5H409.134Z" fill="#C4C4C4"/>
<path d="M397.468 453.5L193.5 249.532V248.955L398.045 453.5H397.468Z" fill="#C4C4C4"/>
<path d="M385.802 453.5L193.5 261.198V260.621L386.379 453.5H385.802Z" fill="#C4C4C4"/>
<path d="M374.135 453.5L193.5 272.864V272.287L374.713 453.5H374.135Z" fill="#C4C4C4"/>
<path d="M362.47 453.5L193.5 284.53V283.953L363.047 453.5H362.47Z" fill="#C4C4C4"/>
<path d="M350.804 453.5L193.5 296.196V295.619L351.381 453.5H350.804Z" fill="#C4C4C4"/>
<path d="M339.137 453.5L193.5 307.862V307.285L339.715 453.5H339.137Z" fill="#C4C4C4"/>
<path d="M327.471 453.5L193.5 319.529V318.951L328.049 453.5H327.471Z" fill="#C4C4C4"/>
<path d="M315.805 453.5L193.5 331.195V330.617L316.383 453.5H315.805Z" fill="#C4C4C4"/>
<path d="M304.139 453.5L193.5 342.861V342.283L304.717 453.5H304.139Z" fill="#C4C4C4"/>
<path d="M292.473 453.5L193.5 354.527V353.95L293.05 453.5H292.473Z" fill="#C4C4C4"/>
<path d="M280.807 453.5L193.5 366.193V365.615L281.384 453.5H280.807Z" fill="#C4C4C4"/>
<path d="M269.141 453.5L193.5 377.859V377.281L269.719 453.5H269.141Z" fill="#C4C4C4"/>
<path d="M257.475 453.5L193.5 389.525V388.948L258.052 453.5H257.475Z" fill="#C4C4C4"/>
<path d="M245.809 453.5L193.5 401.191V400.614L246.386 453.5H245.809Z" fill="#C4C4C4"/>
</g>
</g>
<rect x="16.5" y="17.5" width="378" height="382" fill="white"/>
<line x1="6" y1="5.5" x2="6.00002" y2="411.5" stroke="#E5E7EB"/>
<line x1="405" y1="5.5" x2="405" y2="411.5" stroke="#E5E7EB"/>
<line x1="5.5" y1="6" x2="405.5" y2="5.99997" stroke="#E5E7EB"/>
<line x1="5.5" y1="411" x2="405.5" y2="411" stroke="#E5E7EB"/>
<path d="M405 405V417" stroke="black"/>
<path d="M411 411H399" stroke="black"/>
<path d="M6 405V417" stroke="black"/>
<path d="M12 411H0" stroke="black"/>
<path d="M6 0V12" stroke="black"/>
<path d="M12 6H0" stroke="black"/>
<path d="M405 0V12" stroke="black"/>
<path d="M411 6H399" stroke="black"/>
<defs>
<clipPath id="clip0_641_6182">
<rect width="245" height="245" fill="white" transform="translate(-51.5 -36.5)"/>
</clipPath>
<clipPath id="clip1_641_6182">
<rect width="245" height="245" fill="white" transform="translate(193.5 -36.5)"/>
</clipPath>
<clipPath id="clip2_641_6182">
<rect width="245" height="245" fill="white" transform="translate(-51.5 208.5)"/>
</clipPath>
<clipPath id="clip3_641_6182">
<rect width="245" height="245" fill="white" transform="translate(193.5 208.5)"/>
</clipPath>
</defs>
</svg>
