<svg width="43" height="43" viewBox="0 0 43 43" fill="none" xmlns="http://www.w3.org/2000/svg">
<path d="M26.4062 6.60156C23.7089 6.60363 21.0654 7.35602 18.7713 8.77457C16.4772 10.1931 14.623 12.2219 13.4159 14.634C11.98 14.4246 10.5164 14.5133 9.11627 14.8946C7.71616 15.2759 6.40963 15.9415 5.27817 16.8501C4.14672 17.7587 3.21461 18.8906 2.53998 20.1754C1.86536 21.4601 1.4627 22.8701 1.3571 24.3173C1.25151 25.7646 1.44526 27.2181 1.92626 28.5871C2.40726 29.9562 3.1652 31.2115 4.1528 32.2746C5.1404 33.3378 6.33647 34.1861 7.66641 34.7665C8.99635 35.347 10.4316 35.6472 11.8827 35.6484H26.4062C30.258 35.6484 33.9521 34.1183 36.6758 31.3946C39.3995 28.6709 40.9296 24.9769 40.9296 21.125C40.9296 17.2731 39.3995 13.5791 36.6758 10.8554C33.9521 8.13171 30.258 6.60156 26.4062 6.60156ZM26.4062 33.0078H11.8827C9.78172 33.0078 7.76676 32.1732 6.28112 30.6876C4.79548 29.2019 3.96086 27.1869 3.96086 25.0859C3.96086 22.9849 4.79548 20.97 6.28112 19.4843C7.76676 17.9987 9.78172 17.1641 11.8827 17.1641C12.0643 17.1641 12.2458 17.1641 12.4257 17.1822C12.0646 18.4653 11.8819 19.792 11.8827 21.125C11.8827 21.4752 12.0218 21.811 12.2694 22.0586C12.517 22.3062 12.8529 22.4453 13.203 22.4453C13.5532 22.4453 13.889 22.3062 14.1366 22.0586C14.3843 21.811 14.5234 21.4752 14.5234 21.125C14.5234 18.7748 15.2203 16.4774 16.526 14.5233C17.8317 12.5691 19.6875 11.0461 21.8588 10.1467C24.0301 9.24733 26.4194 9.01201 28.7244 9.47051C31.0294 9.92901 33.1467 11.0607 34.8086 12.7226C36.4704 14.3844 37.6022 16.5017 38.0607 18.8068C38.5192 21.1118 38.2838 23.5011 37.3845 25.6724C36.4851 27.8437 34.962 29.6995 33.0079 31.0052C31.0538 32.3109 28.7564 33.0078 26.4062 33.0078ZM32.6215 17.5503C32.7443 17.6729 32.8417 17.8185 32.9081 17.9788C32.9746 18.1391 33.0088 18.3109 33.0088 18.4844C33.0088 18.6579 32.9746 18.8297 32.9081 18.99C32.8417 19.1503 32.7443 19.2959 32.6215 19.4185L24.6997 27.3404C24.577 27.4631 24.4314 27.5605 24.2711 27.627C24.1109 27.6934 23.9391 27.7276 23.7655 27.7276C23.592 27.7276 23.4202 27.6934 23.2599 27.627C23.0997 27.5605 22.954 27.4631 22.8314 27.3404L18.8705 23.3794C18.6227 23.1317 18.4836 22.7957 18.4836 22.4453C18.4836 22.0949 18.6227 21.7589 18.8705 21.5112C19.1182 21.2634 19.4542 21.1243 19.8046 21.1243C20.155 21.1243 20.491 21.2634 20.7387 21.5112L23.7655 24.5397L30.7533 17.5503C30.8759 17.4275 31.0215 17.3301 31.1818 17.2637C31.3421 17.1972 31.5139 17.163 31.6874 17.163C31.8609 17.163 32.0327 17.1972 32.193 17.2637C32.3533 17.3301 32.4989 17.4275 32.6215 17.5503Z" fill="url(#paint0_linear_731_5714)"/>
<defs>
<linearGradient id="paint0_linear_731_5714" x1="-2.3029" y1="39.6016" x2="19.7074" y2="8.27035" gradientUnits="userSpaceOnUse">
<stop stop-color="#00AE8E" stop-opacity="0"/>
<stop offset="1" stop-color="#00AE8E"/>
</linearGradient>
</defs>
</svg>
