<svg width="43" height="43" viewBox="0 0 43 43" fill="none" xmlns="http://www.w3.org/2000/svg">
<g opacity="0.4" clip-path="url(#clip0_731_5663)">
<path d="M21.125 0C16.9469 0 12.8626 1.23896 9.38859 3.5602C5.9146 5.88145 3.20696 9.18072 1.60805 13.0408C0.00915313 16.9009 -0.409192 21.1484 0.40592 25.2463C1.22103 29.3441 3.23299 33.1082 6.18738 36.0626C9.14176 39.017 12.9059 41.029 17.0037 41.8441C21.1016 42.6592 25.3491 42.2409 29.2092 40.642C33.0693 39.043 36.3686 36.3354 38.6898 32.8614C41.011 29.3874 42.25 25.3031 42.25 21.125C42.2441 15.5241 40.0165 10.1543 36.0561 6.1939C32.0957 2.23348 26.7259 0.00591463 21.125 0ZM21.125 39C17.5897 39 14.1337 37.9516 11.1942 35.9875C8.25466 34.0234 5.96358 31.2317 4.61066 27.9655C3.25775 24.6992 2.90376 21.1052 3.59347 17.6378C4.28318 14.1703 5.98561 10.9853 8.48548 8.48547C10.9853 5.9856 14.1704 4.28317 17.6378 3.59346C21.1052 2.90375 24.6992 3.25774 27.9655 4.61065C31.2317 5.96357 34.0234 8.25465 35.9875 11.1942C37.9517 14.1337 39 17.5897 39 21.125C38.9946 25.8641 37.1097 30.4075 33.7586 33.7586C30.4076 37.1096 25.8641 38.9946 21.125 39ZM30.1478 9.92062L17.1478 16.4206C16.8335 16.5785 16.5785 16.8335 16.4206 17.1478L9.92063 30.1478C9.79661 30.3956 9.73804 30.6711 9.75048 30.9479C9.76292 31.2248 9.84596 31.4939 9.99171 31.7296C10.1375 31.9653 10.3411 32.1598 10.5832 32.2947C10.8253 32.4295 11.0979 32.5002 11.375 32.5C11.6273 32.4996 11.8761 32.4412 12.1022 32.3294L25.1022 25.8294C25.4165 25.6715 25.6715 25.4165 25.8294 25.1022L32.3294 12.1022C32.4827 11.797 32.536 11.4512 32.4816 11.1139C32.4272 10.7767 32.2679 10.4652 32.0264 10.2236C31.7848 9.98207 31.4733 9.82279 31.1361 9.7684C30.7989 9.71401 30.4531 9.76727 30.1478 9.92062ZM23.1563 23.1562L15.0089 27.2411L19.0938 19.0937L27.2492 15.017L23.1563 23.1562Z" fill="url(#paint0_linear_731_5663)"/>
</g>
<defs>
<linearGradient id="paint0_linear_731_5663" x1="21.125" y1="54.3214" x2="21.125" y2="10.5625" gradientUnits="userSpaceOnUse">
<stop stop-color="#394FA1" stop-opacity="0"/>
<stop offset="1" stop-color="#394FA1"/>
</linearGradient>
<clipPath id="clip0_731_5663">
<rect width="42.25" height="42.25" fill="white"/>
</clipPath>
</defs>
</svg>
