<svg width="60" height="60" viewBox="0 0 60 60" fill="none" xmlns="http://www.w3.org/2000/svg">
<circle cx="30" cy="30" r="30" fill="url(#paint0_linear_731_3686)"/>
<path d="M31 28H20C19.7348 28 19.4804 28.1054 19.2929 28.2929C19.1054 28.4804 19 28.7348 19 29V40C19 40.2652 19.1054 40.5196 19.2929 40.7071C19.4804 40.8946 19.7348 41 20 41H31C31.2652 41 31.5196 40.8946 31.7071 40.7071C31.8946 40.5196 32 40.2652 32 40V29C32 28.7348 31.8946 28.4804 31.7071 28.2929C31.5196 28.1054 31.2652 28 31 28ZM30 39H21V30H30V39ZM41 37V39C41 39.5304 40.7893 40.0391 40.4142 40.4142C40.0391 40.7893 39.5304 41 39 41H36C35.7348 41 35.4804 40.8946 35.2929 40.7071C35.1054 40.5196 35 40.2652 35 40C35 39.7348 35.1054 39.4804 35.2929 39.2929C35.4804 39.1054 35.7348 39 36 39H39V37C39 36.7348 39.1054 36.4804 39.2929 36.2929C39.4804 36.1054 39.7348 36 40 36C40.2652 36 40.5196 36.1054 40.7071 36.2929C40.8946 36.4804 41 36.7348 41 37ZM41 28V32C41 32.2652 40.8946 32.5196 40.7071 32.7071C40.5196 32.8946 40.2652 33 40 33C39.7348 33 39.4804 32.8946 39.2929 32.7071C39.1054 32.5196 39 32.2652 39 32V28C39 27.7348 39.1054 27.4804 39.2929 27.2929C39.4804 27.1054 39.7348 27 40 27C40.2652 27 40.5196 27.1054 40.7071 27.2929C40.8946 27.4804 41 27.7348 41 28ZM41 21V23C41 23.2652 40.8946 23.5196 40.7071 23.7071C40.5196 23.8946 40.2652 24 40 24C39.7348 24 39.4804 23.8946 39.2929 23.7071C39.1054 23.5196 39 23.2652 39 23V21H37C36.7348 21 36.4804 20.8946 36.2929 20.7071C36.1054 20.5196 36 20.2652 36 20C36 19.7348 36.1054 19.4804 36.2929 19.2929C36.4804 19.1054 36.7348 19 37 19H39C39.5304 19 40.0391 19.2107 40.4142 19.5858C40.7893 19.9609 41 20.4696 41 21ZM33 20C33 20.2652 32.8946 20.5196 32.7071 20.7071C32.5196 20.8946 32.2652 21 32 21H28C27.7348 21 27.4804 20.8946 27.2929 20.7071C27.1054 20.5196 27 20.2652 27 20C27 19.7348 27.1054 19.4804 27.2929 19.2929C27.4804 19.1054 27.7348 19 28 19H32C32.2652 19 32.5196 19.1054 32.7071 19.2929C32.8946 19.4804 33 19.7348 33 20ZM19 24V21C19 20.4696 19.2107 19.9609 19.5858 19.5858C19.9609 19.2107 20.4696 19 21 19H23C23.2652 19 23.5196 19.1054 23.7071 19.2929C23.8946 19.4804 24 19.7348 24 20C24 20.2652 23.8946 20.5196 23.7071 20.7071C23.5196 20.8946 23.2652 21 23 21H21V24C21 24.2652 20.8946 24.5196 20.7071 24.7071C20.5196 24.8946 20.2652 25 20 25C19.7348 25 19.4804 24.8946 19.2929 24.7071C19.1054 24.5196 19 24.2652 19 24Z" fill="url(#paint1_linear_731_3686)"/>
<defs>
<linearGradient id="paint0_linear_731_3686" x1="30" y1="0" x2="30" y2="60" gradientUnits="userSpaceOnUse">
<stop stop-color="#FFF1CF"/>
<stop offset="1" stop-color="white"/>
</linearGradient>
<linearGradient id="paint1_linear_731_3686" x1="21.7505" y1="41" x2="49.5478" y2="1.63198" gradientUnits="userSpaceOnUse">
<stop stop-color="#F5891F"/>
<stop offset="1" stop-color="#FF8A16"/>
</linearGradient>
</defs>
</svg>
