<svg width="60" height="60" viewBox="0 0 60 60" fill="none" xmlns="http://www.w3.org/2000/svg">
<circle cx="30" cy="30" r="30" fill="url(#paint0_radial_731_3677)"/>
<path d="M35.5 23.5C35.5 22.4122 35.1774 21.3488 34.5731 20.4444C33.9687 19.5399 33.1098 18.8349 32.1048 18.4187C31.0998 18.0024 29.9939 17.8935 28.927 18.1057C27.8601 18.3179 26.8801 18.8417 26.1109 19.6109C25.3417 20.3801 24.8179 21.3601 24.6057 22.427C24.3935 23.4939 24.5024 24.5998 24.9187 25.6048C25.3349 26.6098 26.0399 27.4687 26.9444 28.0731C27.8488 28.6774 28.9122 29 30 29C31.4582 28.9983 32.8562 28.4184 33.8873 27.3873C34.9184 26.3562 35.4983 24.9582 35.5 23.5ZM30 27C29.3078 27 28.6311 26.7947 28.0555 26.4101C27.4799 26.0256 27.0313 25.4789 26.7664 24.8394C26.5015 24.1999 26.4322 23.4961 26.5673 22.8172C26.7023 22.1383 27.0356 21.5146 27.5251 21.0251C28.0146 20.5356 28.6383 20.2023 29.3172 20.0673C29.9961 19.9322 30.6999 20.0015 31.3394 20.2664C31.9789 20.5313 32.5256 20.9799 32.9101 21.5555C33.2947 22.1311 33.5 22.8078 33.5 23.5C33.5 24.4283 33.1313 25.3185 32.4749 25.9749C31.8185 26.6313 30.9283 27 30 27ZM37.5 30C36.4122 30 35.3488 30.3226 34.4444 30.9269C33.5399 31.5313 32.8349 32.3903 32.4187 33.3952C32.0024 34.4002 31.8935 35.5061 32.1057 36.573C32.3179 37.6399 32.8417 38.6199 33.6109 39.3891C34.3801 40.1583 35.3601 40.6821 36.427 40.8943C37.4939 41.1065 38.5998 40.9976 39.6048 40.5813C40.6098 40.1651 41.4687 39.4601 42.0731 38.5556C42.6774 37.6512 43 36.5878 43 35.5C42.9983 34.0418 42.4184 32.6438 41.3873 31.6127C40.3562 30.5817 38.9582 30.0017 37.5 30ZM37.5 39C36.8078 39 36.1311 38.7947 35.5555 38.4101C34.9799 38.0256 34.5313 37.4789 34.2664 36.8394C34.0015 36.1999 33.9322 35.4961 34.0673 34.8172C34.2023 34.1383 34.5356 33.5146 35.0251 33.0251C35.5146 32.5356 36.1383 32.2023 36.8172 32.0673C37.4961 31.9322 38.1999 32.0015 38.8394 32.2664C39.4789 32.5313 40.0256 32.9799 40.4101 33.5555C40.7947 34.1311 41 34.8078 41 35.5C41 36.4283 40.6313 37.3185 39.9749 37.9749C39.3185 38.6313 38.4283 39 37.5 39ZM22.5 30C21.4122 30 20.3488 30.3226 19.4444 30.9269C18.5399 31.5313 17.8349 32.3903 17.4187 33.3952C17.0024 34.4002 16.8935 35.5061 17.1057 36.573C17.3179 37.6399 17.8417 38.6199 18.6109 39.3891C19.3801 40.1583 20.3601 40.6821 21.427 40.8943C22.4939 41.1065 23.5998 40.9976 24.6048 40.5813C25.6098 40.1651 26.4687 39.4601 27.0731 38.5556C27.6774 37.6512 28 36.5878 28 35.5C27.9983 34.0418 27.4184 32.6438 26.3873 31.6127C25.3562 30.5817 23.9582 30.0017 22.5 30ZM22.5 39C21.8078 39 21.1311 38.7947 20.5555 38.4101C19.9799 38.0256 19.5313 37.4789 19.2664 36.8394C19.0015 36.1999 18.9322 35.4961 19.0673 34.8172C19.2023 34.1383 19.5356 33.5146 20.0251 33.0251C20.5146 32.5356 21.1383 32.2023 21.8172 32.0673C22.4961 31.9322 23.1999 32.0015 23.8394 32.2664C24.4789 32.5313 25.0256 32.9799 25.4101 33.5555C25.7947 34.1311 26 34.8078 26 35.5C26 36.4283 25.6313 37.3185 24.9749 37.9749C24.3185 38.6313 23.4283 39 22.5 39Z" fill="url(#paint1_linear_731_3677)"/>
<defs>
<radialGradient id="paint0_radial_731_3677" cx="0" cy="0" r="1" gradientUnits="userSpaceOnUse" gradientTransform="translate(30) rotate(90) scale(60)">
<stop stop-color="#CDD6EA"/>
<stop offset="1" stop-color="white"/>
</radialGradient>
<linearGradient id="paint1_linear_731_3677" x1="20.2505" y1="41" x2="47.9631" y2="-3.36727" gradientUnits="userSpaceOnUse">
<stop stop-color="#394FA1"/>
<stop offset="1" stop-color="#0081C5"/>
</linearGradient>
</defs>
</svg>
