<svg width="716" height="396" viewBox="0 0 716 396" fill="none" xmlns="http://www.w3.org/2000/svg">
<rect width="716" height="396" fill="white"/>
<rect x="136" width="580" height="396" fill="url(#paint0_linear_663_7019)"/>
<mask id="mask0_663_7019" style="mask-type:alpha" maskUnits="userSpaceOnUse" x="0" y="0" width="716" height="396">
<rect width="716" height="396" fill="white"/>
</mask>
<g mask="url(#mask0_663_7019)">
<g clip-path="url(#clip0_663_7019)">
<path d="M143.577 -95L358 119.422V120.308L142.691 -95H143.577Z" fill="#C4C4C4"/>
<path d="M161.481 -95L358 101.518V102.404L160.595 -95H161.481Z" fill="#C4C4C4"/>
<path d="M179.385 -95L358 83.6146V84.5007L178.499 -95H179.385Z" fill="#C4C4C4"/>
<path d="M197.289 -95L358 65.7104V66.5964L196.403 -95H197.289Z" fill="#C4C4C4"/>
<path d="M215.193 -95L358 47.8067V48.6927L214.307 -95H215.193Z" fill="#C4C4C4"/>
<path d="M233.097 -95L358 29.9031V30.7891L232.211 -95H233.097Z" fill="#C4C4C4"/>
<path d="M251 -95L358 11.9988V12.8854L250.115 -95H251Z" fill="#C4C4C4"/>
<path d="M125.674 -95L358 137.326V138.212L124.788 -95H125.674Z" fill="#C4C4C4"/>
<path d="M107.77 -95L358 155.23V156.116L106.883 -95H107.77Z" fill="#C4C4C4"/>
<path d="M89.8666 -95L358 173.134V174.02L88.98 -95H89.8666Z" fill="#C4C4C4"/>
<path d="M71.9622 -95L358 191.037V191.924L71.0762 -95H71.9622Z" fill="#C4C4C4"/>
<path d="M54.0579 -95L358 208.941V209.827L53.1719 -95H54.0579Z" fill="#C4C4C4"/>
<path d="M36.1543 -95L358 226.845V227.731L35.2683 -95H36.1543Z" fill="#C4C4C4"/>
<path d="M18.2505 -95L358 244.749V245.635L17.3645 -95H18.2505Z" fill="#C4C4C4"/>
<path d="M0.347191 -95L358 262.653V263.539L-0.538818 -95H0.347191Z" fill="#C4C4C4"/>
<path d="M358 281H357.557L-18 -94.5567V-95H-17.5567L358 280.557V281Z" fill="#C4C4C4"/>
<path d="M339.653 281L-18 -76.6531V-77.5391L340.539 281H339.653Z" fill="#C4C4C4"/>
<path d="M321.749 281L-18 -58.7494V-59.6354L322.635 281H321.749Z" fill="#C4C4C4"/>
<path d="M303.845 281L-18 -40.8457V-41.7317L304.731 281H303.845Z" fill="#C4C4C4"/>
<path d="M285.941 281L-18 -22.9414V-23.8274L286.827 281H285.941Z" fill="#C4C4C4"/>
<path d="M268.037 281L-18 -5.03782V-5.92383L268.924 281H268.037Z" fill="#C4C4C4"/>
<path d="M250.134 281L-18 12.8665V11.9799L251.02 281H250.134Z" fill="#C4C4C4"/>
<path d="M232.23 281L-18 30.7702V29.8842L233.116 281H232.23Z" fill="#C4C4C4"/>
<path d="M214.326 281L-18 48.6739V47.7878L215.212 281H214.326Z" fill="#C4C4C4"/>
<path d="M196.422 281L-18 66.5774V65.6914L197.309 281H196.422Z" fill="#C4C4C4"/>
<path d="M178.518 281L-18 84.4817V83.5951L179.404 281H178.518Z" fill="#C4C4C4"/>
<path d="M160.615 281L-18 102.385V101.499L161.501 281H160.615Z" fill="#C4C4C4"/>
<path d="M142.71 281L-18 120.289V119.403L143.597 281H142.71Z" fill="#C4C4C4"/>
<path d="M124.807 281L-18 138.193V137.307L125.693 281H124.807Z" fill="#C4C4C4"/>
<path d="M106.903 281L-18 156.097V155.211L107.789 281H106.903Z" fill="#C4C4C4"/>
<path d="M88.9994 281L-18 174.001V173.115L89.8854 281H88.9994Z" fill="#C4C4C4"/>
<path d="M71.0951 281L-18 191.905V191.019L71.9811 281H71.0951Z" fill="#C4C4C4"/>
<path d="M53.1915 281L-18 209.809V208.922L54.0775 281H53.1915Z" fill="#C4C4C4"/>
<path d="M35.2872 281L-18 227.712V226.826L36.1738 281H35.2872Z" fill="#C4C4C4"/>
<path d="M17.3835 281L-18 245.616V244.73L18.2695 281H17.3835Z" fill="#C4C4C4"/>
<path d="M-0.520099 281L-18 263.52V262.634L0.36591 281H-0.520099Z" fill="#C4C4C4"/>
<path d="M152.664 -95L358 110.335V111.221L151.778 -95H152.664Z" fill="#C4C4C4"/>
<path d="M170.568 -95L358 92.4316V93.3176L169.682 -95H170.568Z" fill="#C4C4C4"/>
<path d="M188.472 -95L358 74.528V75.414L187.586 -95H188.472Z" fill="#C4C4C4"/>
<path d="M206.376 -95L358 56.6237V57.5097L205.49 -95H206.376Z" fill="#C4C4C4"/>
<path d="M224.28 -95L358 38.7201V39.6061L223.393 -95H224.28Z" fill="#C4C4C4"/>
<path d="M242.184 -95L358 20.8164V21.7024L241.298 -95H242.184Z" fill="#C4C4C4"/>
<path d="M260.087 -95L358 2.91211V3.79812L259.201 -95H260.087Z" fill="#C4C4C4"/>
<path d="M134.76 -95L358 128.24V129.126L133.874 -95H134.76Z" fill="#C4C4C4"/>
<path d="M116.857 -95L358 146.143V147.029L115.97 -95H116.857Z" fill="#C4C4C4"/>
<path d="M98.9524 -95L358 164.047V164.933L98.0664 -95H98.9524Z" fill="#C4C4C4"/>
<path d="M81.0489 -95L358 181.951V182.837L80.1628 -95H81.0489Z" fill="#C4C4C4"/>
<path d="M63.1455 -95L358 199.854V200.741L62.2588 -95H63.1455Z" fill="#C4C4C4"/>
<path d="M45.2416 -95L358 217.758V218.644L44.355 -95H45.2416Z" fill="#C4C4C4"/>
<path d="M27.3372 -95L358 235.663V236.549L26.4512 -95H27.3372Z" fill="#C4C4C4"/>
<path d="M9.43362 -95L358 253.566V254.452L8.54761 -95H9.43362Z" fill="#C4C4C4"/>
<path d="M-8.47003 -95L358 271.47V272.356L-9.35669 -95H-8.47003Z" fill="#C4C4C4"/>
<path d="M348.74 281L-18 -85.7397V-86.6257L349.626 281H348.74Z" fill="#C4C4C4"/>
<path d="M330.836 281L-18 -67.836V-68.722L331.722 281H330.836Z" fill="#C4C4C4"/>
<path d="M312.932 281L-18 -49.9324V-50.8184L313.818 281H312.932Z" fill="#C4C4C4"/>
<path d="M295.028 281L-18 -32.0281V-32.9141L295.914 281H295.028Z" fill="#C4C4C4"/>
<path d="M277.124 281L-18 -14.1245V-15.0105L278.01 281H277.124Z" fill="#C4C4C4"/>
<path d="M259.22 281L-18 3.7792V2.89319L260.106 281H259.22Z" fill="#C4C4C4"/>
<path d="M241.317 281L-18 21.6835V20.7975L242.203 281H241.317Z" fill="#C4C4C4"/>
<path d="M223.413 281L-18 39.5872V38.7012L224.299 281H223.413Z" fill="#C4C4C4"/>
<path d="M205.509 281L-18 57.4907V56.6047L206.395 281H205.509Z" fill="#C4C4C4"/>
<path d="M187.605 281L-18 75.395V74.509L188.491 281H187.605Z" fill="#C4C4C4"/>
<path d="M169.701 281L-18 93.2987V92.4127L170.587 281H169.701Z" fill="#C4C4C4"/>
<path d="M151.797 281L-18 111.202V110.316L152.684 281H151.797Z" fill="#C4C4C4"/>
<path d="M133.893 281L-18 129.107V128.221L134.779 281H133.893Z" fill="#C4C4C4"/>
<path d="M115.99 281L-18 147.01V146.124L116.876 281H115.99Z" fill="#C4C4C4"/>
<path d="M98.0854 281L-18 164.914V164.028L98.9721 281H98.0854Z" fill="#C4C4C4"/>
<path d="M80.1818 281L-18 182.818V181.932L81.0678 281H80.1818Z" fill="#C4C4C4"/>
<path d="M62.2781 281L-18 200.722V199.836L63.1641 281H62.2781Z" fill="#C4C4C4"/>
<path d="M44.3745 281L-18 218.626V217.74L45.2605 281H44.3745Z" fill="#C4C4C4"/>
<path d="M26.4702 281L-18 236.529V235.643L27.3562 281H26.4702Z" fill="#C4C4C4"/>
<path d="M8.56655 281L-18 254.433V253.547L9.45256 281H8.56655Z" fill="#C4C4C4"/>
</g>
<g clip-path="url(#clip1_663_7019)">
<path d="M519.578 -95L734 119.422V120.308L518.692 -95H519.578Z" fill="#C4C4C4"/>
<path d="M537.481 -95L734 101.518V102.404L536.595 -95H537.481Z" fill="#C4C4C4"/>
<path d="M555.385 -95L734 83.6146V84.5007L554.499 -95H555.385Z" fill="#C4C4C4"/>
<path d="M573.289 -95L734 65.7104V66.5964L572.403 -95H573.289Z" fill="#C4C4C4"/>
<path d="M591.193 -95L734 47.8067V48.6927L590.307 -95H591.193Z" fill="#C4C4C4"/>
<path d="M609.097 -95L734 29.9031V30.7891L608.211 -95H609.097Z" fill="#C4C4C4"/>
<path d="M627 -95L734 11.9988V12.8854L626.115 -95H627Z" fill="#C4C4C4"/>
<path d="M501.674 -95L734 137.326V138.212L500.788 -95H501.674Z" fill="#C4C4C4"/>
<path d="M483.77 -95L734 155.23V156.116L482.883 -95H483.77Z" fill="#C4C4C4"/>
<path d="M465.867 -95L734 173.134V174.02L464.98 -95H465.867Z" fill="#C4C4C4"/>
<path d="M447.962 -95L734 191.037V191.924L447.076 -95H447.962Z" fill="#C4C4C4"/>
<path d="M430.058 -95L734 208.941V209.827L429.172 -95H430.058Z" fill="#C4C4C4"/>
<path d="M412.154 -95L734 226.845V227.731L411.268 -95H412.154Z" fill="#C4C4C4"/>
<path d="M394.251 -95L734 244.749V245.635L393.365 -95H394.251Z" fill="#C4C4C4"/>
<path d="M376.347 -95L734 262.653V263.539L375.461 -95H376.347Z" fill="#C4C4C4"/>
<path d="M734 281H733.557L358 -94.5567V-95H358.443L734 280.557V281Z" fill="#C4C4C4"/>
<path d="M715.653 281L358 -76.6531V-77.5391L716.539 281H715.653Z" fill="#C4C4C4"/>
<path d="M697.749 281L358 -58.7494V-59.6354L698.635 281H697.749Z" fill="#C4C4C4"/>
<path d="M679.845 281L358 -40.8457V-41.7317L680.731 281H679.845Z" fill="#C4C4C4"/>
<path d="M661.941 281L358 -22.9414V-23.8274L662.827 281H661.941Z" fill="#C4C4C4"/>
<path d="M644.037 281L358 -5.03782V-5.92383L644.924 281H644.037Z" fill="#C4C4C4"/>
<path d="M626.134 281L358 12.8665V11.9799L627.02 281H626.134Z" fill="#C4C4C4"/>
<path d="M608.23 281L358 30.7702V29.8842L609.116 281H608.23Z" fill="#C4C4C4"/>
<path d="M590.326 281L358 48.6739V47.7878L591.212 281H590.326Z" fill="#C4C4C4"/>
<path d="M572.422 281L358 66.5774V65.6914L573.309 281H572.422Z" fill="#C4C4C4"/>
<path d="M554.518 281L358 84.4817V83.5951L555.404 281H554.518Z" fill="#C4C4C4"/>
<path d="M536.615 281L358 102.385V101.499L537.501 281H536.615Z" fill="#C4C4C4"/>
<path d="M518.71 281L358 120.289V119.403L519.597 281H518.71Z" fill="#C4C4C4"/>
<path d="M500.807 281L358 138.193V137.307L501.693 281H500.807Z" fill="#C4C4C4"/>
<path d="M482.903 281L358 156.097V155.211L483.789 281H482.903Z" fill="#C4C4C4"/>
<path d="M464.999 281L358 174.001V173.115L465.885 281H464.999Z" fill="#C4C4C4"/>
<path d="M447.095 281L358 191.905V191.019L447.981 281H447.095Z" fill="#C4C4C4"/>
<path d="M429.191 281L358 209.809V208.922L430.077 281H429.191Z" fill="#C4C4C4"/>
<path d="M411.287 281L358 227.712V226.826L412.174 281H411.287Z" fill="#C4C4C4"/>
<path d="M393.384 281L358 245.616V244.73L394.27 281H393.384Z" fill="#C4C4C4"/>
<path d="M375.48 281L358 263.52V262.634L376.366 281H375.48Z" fill="#C4C4C4"/>
<path d="M358 281V280.538L358.462 281H358Z" fill="#C4C4C4"/>
<path d="M528.664 -95L734 110.335V111.221L527.778 -95H528.664Z" fill="#C4C4C4"/>
<path d="M546.568 -95L734 92.4316V93.3176L545.682 -95H546.568Z" fill="#C4C4C4"/>
<path d="M564.472 -95L734 74.528V75.414L563.586 -95H564.472Z" fill="#C4C4C4"/>
<path d="M582.376 -95L734 56.6237V57.5097L581.49 -95H582.376Z" fill="#C4C4C4"/>
<path d="M600.28 -95L734 38.7201V39.6061L599.393 -95H600.28Z" fill="#C4C4C4"/>
<path d="M618.183 -95L734 20.8164V21.7024L617.297 -95H618.183Z" fill="#C4C4C4"/>
<path d="M636.087 -95L734 2.91211V3.79812L635.201 -95H636.087Z" fill="#C4C4C4"/>
<path d="M510.76 -95L734 128.24V129.126L509.874 -95H510.76Z" fill="#C4C4C4"/>
<path d="M492.857 -95L734 146.143V147.029L491.97 -95H492.857Z" fill="#C4C4C4"/>
<path d="M474.953 -95L734 164.047V164.933L474.067 -95H474.953Z" fill="#C4C4C4"/>
<path d="M457.049 -95L734 181.951V182.837L456.163 -95H457.049Z" fill="#C4C4C4"/>
<path d="M439.145 -95L734 199.854V200.741L438.259 -95H439.145Z" fill="#C4C4C4"/>
<path d="M421.242 -95L734 217.758V218.644L420.355 -95H421.242Z" fill="#C4C4C4"/>
<path d="M403.337 -95L734 235.663V236.549L402.451 -95H403.337Z" fill="#C4C4C4"/>
<path d="M385.434 -95L734 253.566V254.452L384.548 -95H385.434Z" fill="#C4C4C4"/>
<path d="M367.53 -95L734 271.47V272.356L366.643 -95H367.53Z" fill="#C4C4C4"/>
<path d="M724.74 281L358 -85.7397V-86.6257L725.626 281H724.74Z" fill="#C4C4C4"/>
<path d="M706.836 281L358 -67.836V-68.722L707.722 281H706.836Z" fill="#C4C4C4"/>
<path d="M688.932 281L358 -49.9324V-50.8184L689.818 281H688.932Z" fill="#C4C4C4"/>
<path d="M671.028 281L358 -32.0281V-32.9141L671.914 281H671.028Z" fill="#C4C4C4"/>
<path d="M653.124 281L358 -14.1245V-15.0105L654.01 281H653.124Z" fill="#C4C4C4"/>
<path d="M635.22 281L358 3.7792V2.89319L636.106 281H635.22Z" fill="#C4C4C4"/>
<path d="M617.317 281L358 21.6835V20.7975L618.203 281H617.317Z" fill="#C4C4C4"/>
<path d="M599.413 281L358 39.5872V38.7012L600.299 281H599.413Z" fill="#C4C4C4"/>
<path d="M581.509 281L358 57.4907V56.6047L582.395 281H581.509Z" fill="#C4C4C4"/>
<path d="M563.605 281L358 75.395V74.509L564.491 281H563.605Z" fill="#C4C4C4"/>
<path d="M545.701 281L358 93.2987V92.4127L546.587 281H545.701Z" fill="#C4C4C4"/>
<path d="M527.797 281L358 111.202V110.316L528.684 281H527.797Z" fill="#C4C4C4"/>
<path d="M509.893 281L358 129.107V128.221L510.779 281H509.893Z" fill="#C4C4C4"/>
<path d="M491.99 281L358 147.01V146.124L492.876 281H491.99Z" fill="#C4C4C4"/>
<path d="M474.085 281L358 164.914V164.028L474.972 281H474.085Z" fill="#C4C4C4"/>
<path d="M456.182 281L358 182.818V181.932L457.068 281H456.182Z" fill="#C4C4C4"/>
<path d="M438.278 281L358 200.722V199.836L439.164 281H438.278Z" fill="#C4C4C4"/>
<path d="M420.374 281L358 218.626V217.74L421.26 281H420.374Z" fill="#C4C4C4"/>
<path d="M402.47 281L358 236.529V235.643L403.356 281H402.47Z" fill="#C4C4C4"/>
<path d="M384.567 281L358 254.433V253.547L385.453 281H384.567Z" fill="#C4C4C4"/>
<path d="M366.663 281L358 272.337V271.451L367.549 281H366.663Z" fill="#C4C4C4"/>
</g>
</g>
<rect x="18" y="15" width="680" height="366" fill="white"/>
<defs>
<linearGradient id="paint0_linear_663_7019" x1="139.192" y1="9.90003" x2="834.872" y2="120.338" gradientUnits="userSpaceOnUse">
<stop stop-color="white"/>
<stop offset="0.778846" stop-color="white"/>
<stop offset="1" stop-color="#4C1AFF"/>
</linearGradient>
<clipPath id="clip0_663_7019">
<rect width="376" height="376" fill="white" transform="translate(-18 -95)"/>
</clipPath>
<clipPath id="clip1_663_7019">
<rect width="376" height="376" fill="white" transform="translate(358 -95)"/>
</clipPath>
</defs>
</svg>
