<svg width="60" height="60" viewBox="0 0 60 60" fill="none" xmlns="http://www.w3.org/2000/svg">
<circle cx="30" cy="30" r="30" fill="url(#paint0_linear_731_3668)"/>
<path d="M41.7074 39.9713L33.9961 27.115V20H34.9961C35.2613 20 35.5157 19.8946 35.7032 19.7071C35.8908 19.5196 35.9961 19.2652 35.9961 19C35.9961 18.7348 35.8908 18.4804 35.7032 18.2929C35.5157 18.1054 35.2613 18 34.9961 18H24.9961C24.7309 18 24.4766 18.1054 24.289 18.2929C24.1015 18.4804 23.9961 18.7348 23.9961 19C23.9961 19.2652 24.1015 19.5196 24.289 19.7071C24.4766 19.8946 24.7309 20 24.9961 20H25.9961V27.115L18.2849 39.9713C18.103 40.2745 18.0048 40.6205 18.0002 40.974C17.9956 41.3276 18.0848 41.676 18.2587 41.9838C18.4326 42.2917 18.6851 42.5479 18.9903 42.7264C19.2955 42.9049 19.6425 42.9993 19.9961 43H39.9961C40.35 43 40.6976 42.9061 41.0033 42.7278C41.309 42.5496 41.562 42.2934 41.7364 41.9855C41.9107 41.6775 42.0003 41.3288 41.9958 40.9749C41.9914 40.6211 41.8932 40.2747 41.7111 39.9713H41.7074ZM27.8536 27.9062C27.9471 27.7512 27.9964 27.5736 27.9961 27.3925V20H31.9961V27.3925C31.9958 27.5736 32.0451 27.7512 32.1386 27.9062L36.9161 35.875C35.4161 36.1712 33.2824 36.0462 30.4474 34.6112C28.4586 33.605 26.5661 33.0713 24.7949 33.01L27.8536 27.9062ZM19.9961 41L23.5636 35.0525C25.3449 34.835 27.3524 35.2837 29.5411 36.3925C31.9161 37.5937 33.9161 38.0025 35.5411 38.0025C36.3676 38.0062 37.1904 37.8925 37.9849 37.665L39.9961 41H19.9961Z" fill="url(#paint1_linear_731_3668)"/>
<defs>
<linearGradient id="paint0_linear_731_3668" x1="30" y1="0" x2="30" y2="60" gradientUnits="userSpaceOnUse">
<stop stop-color="#FED1E6"/>
<stop offset="1" stop-color="white"/>
</linearGradient>
<linearGradient id="paint1_linear_731_3668" x1="21" y1="43" x2="53" y2="-0.500001" gradientUnits="userSpaceOnUse">
<stop stop-color="#F05283"/>
<stop offset="1" stop-color="#8F2B8C"/>
</linearGradient>
</defs>
</svg>
