<svg width="43" height="43" viewBox="0 0 43 43" fill="none" xmlns="http://www.w3.org/2000/svg">
<path d="M29.0471 38.1649C29.0471 38.515 28.908 38.8509 28.6604 39.0985C28.4128 39.3461 28.0769 39.4852 27.7268 39.4852H14.5237C14.1735 39.4852 13.8377 39.3461 13.5901 39.0985C13.3424 38.8509 13.2033 38.515 13.2033 38.1649C13.2033 37.8147 13.3424 37.4789 13.5901 37.2313C13.8377 36.9837 14.1735 36.8446 14.5237 36.8446H27.7268C28.0769 36.8446 28.4128 36.9837 28.6604 37.2313C28.908 37.4789 29.0471 37.8147 29.0471 38.1649ZM35.6487 17.0399C35.6543 19.2409 35.1571 21.4141 34.1949 23.3937C33.2327 25.3733 31.831 27.1069 30.0967 28.4622C29.7725 28.7108 29.5093 29.0302 29.3274 29.396C29.1455 29.7619 29.0496 30.1645 29.0471 30.5731V31.5633C29.0471 32.2636 28.7689 32.9353 28.2737 33.4305C27.7785 33.9257 27.1068 34.2039 26.4065 34.2039H15.844C15.1436 34.2039 14.472 33.9257 13.9768 33.4305C13.4815 32.9353 13.2033 32.2636 13.2033 31.5633V30.5731C13.2031 30.1694 13.1102 29.7711 12.932 29.4089C12.7538 29.0467 12.4948 28.7302 12.1751 28.4837C10.4454 27.1365 9.04478 25.4136 8.0792 23.4453C7.11362 21.477 6.6084 19.3148 6.60178 17.1224C6.55887 9.25497 12.9162 2.70622 20.7753 2.51642C22.7118 2.46976 24.6381 2.81094 26.4407 3.51989C28.2434 4.22884 29.886 5.29123 31.2719 6.64453C32.6578 7.99783 33.759 9.6147 34.5106 11.4C35.2623 13.1852 35.6492 15.1028 35.6487 17.0399ZM33.008 17.0399C33.0085 15.4549 32.6919 13.8859 32.0768 12.4252C31.4618 10.9645 30.5607 9.64152 29.4267 8.53426C28.2927 7.427 26.9486 6.55779 25.4736 5.9778C23.9986 5.3978 22.4225 5.11874 20.838 5.15705C14.4015 5.30888 9.20775 10.6677 9.2424 17.1042C9.24831 18.8975 9.66208 20.666 10.4524 22.2758C11.2427 23.8856 12.3888 25.2945 13.8041 26.3959C14.4402 26.8904 14.9548 27.524 15.3083 28.248C15.6619 28.972 15.8451 29.7673 15.844 30.5731V31.5633H19.8049V24.1877L14.9098 19.2943C14.6621 19.0466 14.5229 18.7105 14.5229 18.3602C14.5229 18.0098 14.6621 17.6738 14.9098 17.4261C15.1576 17.1783 15.4936 17.0391 15.844 17.0391C16.1943 17.0391 16.5303 17.1783 16.7781 17.4261L21.1252 21.7748L25.4723 17.4261C25.595 17.3034 25.7406 17.2061 25.9009 17.1397C26.0612 17.0733 26.233 17.0391 26.4065 17.0391C26.5799 17.0391 26.7517 17.0733 26.912 17.1397C27.0723 17.2061 27.2179 17.3034 27.3406 17.4261C27.4633 17.5487 27.5606 17.6944 27.627 17.8546C27.6933 18.0149 27.7275 18.1867 27.7275 18.3602C27.7275 18.5337 27.6933 18.7054 27.627 18.8657C27.5606 19.026 27.4633 19.1716 27.3406 19.2943L22.4455 24.1877V31.5633H26.4065V30.5731C26.4079 29.765 26.5941 28.9679 26.9508 28.2428C27.3075 27.5177 27.8253 26.8837 28.4645 26.3893C29.884 25.28 31.0313 23.861 31.8187 22.2406C32.6061 20.6203 33.0129 18.8414 33.008 17.0399Z" fill="url(#paint0_linear_731_5680)"/>
<defs>
<linearGradient id="paint0_linear_731_5680" x1="-5" y1="53" x2="36" y2="9" gradientUnits="userSpaceOnUse">
<stop stop-color="#F5891F" stop-opacity="0"/>
<stop offset="1" stop-color="#F5891F"/>
</linearGradient>
</defs>
</svg>
