<svg width="25" height="25" viewBox="0 0 25 25" fill="none" xmlns="http://www.w3.org/2000/svg">
<path d="M5.22683 21.0701H18.9468C20.0278 21.0701 20.9068 20.191 20.9068 19.1101V5.39005C20.9068 4.30911 20.0278 3.43005 18.9468 3.43005H5.22683C4.14589 3.43005 3.26683 4.30911 3.26683 5.39005V19.1101C3.26683 20.191 4.14589 21.0701 5.22683 21.0701ZM5.22683 5.39005H18.9468L18.9478 19.1101H5.22683V5.39005Z" fill="white"/>
<path d="M5.22683 21.0701H18.9468C20.0278 21.0701 20.9068 20.191 20.9068 19.1101V5.39005C20.9068 4.30911 20.0278 3.43005 18.9468 3.43005H5.22683C4.14589 3.43005 3.26683 4.30911 3.26683 5.39005V19.1101C3.26683 20.191 4.14589 21.0701 5.22683 21.0701ZM5.22683 5.39005H18.9468L18.9478 19.1101H5.22683V5.39005Z" fill="white"/>
<path d="M13.6088 11.9149L9.68875 9.95485L7.28971 14.752L9.04391 15.6281L10.5649 12.5852L14.4849 14.5452L16.8839 9.74807L15.1297 8.87195L13.6088 11.9149Z" fill="white"/>
<path d="M13.6088 11.9149L9.68875 9.95485L7.28971 14.752L9.04391 15.6281L10.5649 12.5852L14.4849 14.5452L16.8839 9.74807L15.1297 8.87195L13.6088 11.9149Z" fill="white"/>
</svg>
