<svg width="25" height="25" viewBox="0 0 25 25" fill="none" xmlns="http://www.w3.org/2000/svg">
<path d="M12.25 2.04163C6.62115 2.04163 2.04169 6.62108 2.04169 12.25C2.04169 17.8788 6.62115 22.4583 12.25 22.4583C17.8789 22.4583 22.4584 17.8788 22.4584 12.25C22.4584 6.62108 17.8789 2.04163 12.25 2.04163ZM12.25 20.4166C7.74713 20.4166 4.08335 16.7529 4.08335 12.25C4.08335 7.74706 7.74713 4.08329 12.25 4.08329C16.7529 4.08329 20.4167 7.74706 20.4167 12.25C20.4167 16.7529 16.7529 20.4166 12.25 20.4166Z" fill="white"/>
<path d="M12.25 2.04163C6.62115 2.04163 2.04169 6.62108 2.04169 12.25C2.04169 17.8788 6.62115 22.4583 12.25 22.4583C17.8789 22.4583 22.4584 17.8788 22.4584 12.25C22.4584 6.62108 17.8789 2.04163 12.25 2.04163ZM12.25 20.4166C7.74713 20.4166 4.08335 16.7529 4.08335 12.25C4.08335 7.74706 7.74713 4.08329 12.25 4.08329C16.7529 4.08329 20.4167 7.74706 20.4167 12.25C20.4167 16.7529 16.7529 20.4166 12.25 20.4166Z" fill="white"/>
<path d="M8.67706 12.25C9.52275 12.25 10.2083 11.5644 10.2083 10.7188C10.2083 9.87306 9.52275 9.1875 8.67706 9.1875C7.83137 9.1875 7.14581 9.87306 7.14581 10.7188C7.14581 11.5644 7.83137 12.25 8.67706 12.25Z" fill="white"/>
<path d="M8.67706 12.25C9.52275 12.25 10.2083 11.5644 10.2083 10.7188C10.2083 9.87306 9.52275 9.1875 8.67706 9.1875C7.83137 9.1875 7.14581 9.87306 7.14581 10.7188C7.14581 11.5644 7.83137 12.25 8.67706 12.25Z" fill="white"/>
<path d="M15.8158 12.2357C16.6576 12.2357 17.3399 11.5534 17.3399 10.7116C17.3399 9.86987 16.6576 9.1875 15.8158 9.1875C14.974 9.1875 14.2917 9.86987 14.2917 10.7116C14.2917 11.5534 14.974 12.2357 15.8158 12.2357Z" fill="white"/>
<path d="M15.8158 12.2357C16.6576 12.2357 17.3399 11.5534 17.3399 10.7116C17.3399 9.86987 16.6576 9.1875 15.8158 9.1875C14.974 9.1875 14.2917 9.86987 14.2917 10.7116C14.2917 11.5534 14.974 12.2357 15.8158 12.2357Z" fill="white"/>
<path d="M12.25 18.375C16.3333 18.375 17.3541 14.2916 17.3541 14.2916H7.14581C7.14581 14.2916 8.16665 18.375 12.25 18.375Z" fill="white"/>
<path d="M12.25 18.375C16.3333 18.375 17.3541 14.2916 17.3541 14.2916H7.14581C7.14581 14.2916 8.16665 18.375 12.25 18.375Z" fill="white"/>
</svg>
